<?xml version="1.0" encoding="utf-8"?>
<!-- Generator: Adobe Illustrator 16.0.0, SVG Export Plug-In . SVG Version: 6.00 Build 0)  -->
<!DOCTYPE svg PUBLIC "-//W3C//DTD SVG 1.1//EN" "http://www.w3.org/Graphics/SVG/1.1/DTD/svg11.dtd">
<svg version="1.1" id="Layer_1" xmlns="http://www.w3.org/2000/svg" xmlns:xlink="http://www.w3.org/1999/xlink" x="0px" y="0px"
	 width="300px" height="180px" viewBox="108.25 0.75 300 180" enable-background="new 108.25 0.75 300 180" xml:space="preserve">
<g>
	<path fill="#6D6E71" d="M141.036,156.471c-1.565,0-2.999-0.326-4.303-0.979c-1.305-0.651-2.434-1.52-3.391-2.607
		c-0.956-1.087-1.696-2.325-2.217-3.717c-0.521-1.39-0.782-2.824-0.782-4.304c0-1.536,0.253-3.013,0.761-4.435
		c0.506-1.418,1.223-2.672,2.151-3.758c0.927-1.088,2.036-1.951,3.325-2.588c1.29-0.638,2.701-0.955,4.239-0.955
		c1.97,0,3.688,0.514,5.151,1.543c1.462,1.028,2.717,2.282,3.76,3.76v-4.912h1.957v23.038c0,1.536-0.29,2.883-0.87,4.042
		c-0.581,1.158-1.355,2.123-2.326,2.891c-0.972,0.768-2.101,1.349-3.39,1.739c-1.29,0.392-2.646,0.587-4.064,0.587
		c-1.304,0-2.478-0.125-3.521-0.369c-1.043-0.247-1.964-0.595-2.76-1.044c-0.798-0.448-1.507-0.999-2.13-1.651
		c-0.624-0.652-1.167-1.369-1.629-2.152l1.477-1c0.898,1.537,2.115,2.659,3.652,3.369c1.536,0.71,3.173,1.065,4.912,1.065
		c1.159,0,2.252-0.16,3.282-0.479c1.027-0.318,1.926-0.787,2.694-1.413c0.768-0.622,1.376-1.397,1.826-2.326
		c0.449-0.927,0.674-2.013,0.674-3.259v-4.956c-0.928,1.45-2.16,2.623-3.694,3.521C144.28,156.021,142.688,156.471,141.036,156.471z
		 M141.557,154.602c0.957,0,1.884-0.181,2.783-0.543c0.897-0.362,1.717-0.834,2.455-1.414c0.739-0.579,1.355-1.231,1.848-1.956
		c0.494-0.724,0.783-1.449,0.87-2.173v-7.434c-0.349-0.869-0.812-1.674-1.392-2.412c-0.58-0.74-1.239-1.37-1.978-1.892
		c-0.739-0.521-1.537-0.935-2.392-1.24c-0.854-0.304-1.717-0.456-2.586-0.456c-1.361,0-2.58,0.291-3.651,0.87
		c-1.073,0.58-1.978,1.333-2.717,2.262c-0.739,0.927-1.306,1.977-1.696,3.15c-0.391,1.175-0.586,2.354-0.586,3.542
		c0,1.305,0.231,2.537,0.695,3.696c0.463,1.159,1.108,2.188,1.934,3.085c0.826,0.899,1.782,1.609,2.869,2.13
		C139.102,154.341,140.282,154.602,141.557,154.602z"/>
	<path fill="#6D6E71" d="M166.16,156.558c-1.595,0-3.064-0.312-4.413-0.935c-1.347-0.623-2.515-1.473-3.5-2.543
		c-0.986-1.072-1.755-2.318-2.304-3.738c-0.551-1.42-0.825-2.912-0.825-4.478c0-1.594,0.282-3.1,0.848-4.521
		c0.564-1.419,1.347-2.665,2.346-3.738c1-1.071,2.167-1.919,3.499-2.542c1.333-0.623,2.782-0.936,4.348-0.936
		c1.564,0,3.021,0.312,4.369,0.936c1.347,0.623,2.521,1.471,3.522,2.542c1,1.073,1.781,2.319,2.346,3.738
		c0.565,1.42,0.848,2.928,0.848,4.521c0,1.565-0.282,3.058-0.848,4.478c-0.565,1.42-1.34,2.666-2.325,3.738
		c-0.986,1.07-2.16,1.92-3.521,2.543C169.188,156.246,167.725,156.558,166.16,156.558z M157.335,144.951
		c0,1.333,0.231,2.587,0.695,3.76c0.463,1.174,1.094,2.195,1.891,3.064c0.797,0.871,1.731,1.559,2.804,2.065
		c1.072,0.508,2.218,0.761,3.435,0.761c1.216,0,2.361-0.253,3.434-0.761c1.072-0.507,2.007-1.209,2.804-2.108
		c0.797-0.898,1.434-1.935,1.913-3.107c0.479-1.174,0.717-2.441,0.717-3.805c0-1.332-0.239-2.587-0.717-3.76
		c-0.479-1.174-1.117-2.202-1.913-3.087c-0.797-0.883-1.731-1.586-2.804-2.106c-1.072-0.522-2.217-0.783-3.434-0.783
		c-1.189,0-2.319,0.261-3.391,0.783c-1.073,0.521-2.014,1.231-2.826,2.129c-0.812,0.899-1.449,1.949-1.913,3.152
		C157.567,142.35,157.335,143.618,157.335,144.951z"/>
	<path fill="#6D6E71" d="M180.766,124.391h2.217v27.254c0,0.842,0.239,1.508,0.717,2c0.479,0.493,1.138,0.739,1.979,0.739
		c0.317,0,0.703-0.035,1.151-0.108c0.449-0.072,0.861-0.181,1.239-0.327l0.435,1.739c-0.492,0.203-1.101,0.369-1.825,0.5
		c-0.726,0.129-1.348,0.194-1.869,0.194c-1.217,0-2.195-0.369-2.935-1.107c-0.739-0.739-1.108-1.732-1.108-2.979V124.391
		L180.766,124.391z"/>
	<path fill="#6D6E71" d="M189.85,124.391h2.217v27.254c0,0.842,0.24,1.508,0.718,2c0.479,0.493,1.137,0.739,1.978,0.739
		c0.319,0,0.703-0.035,1.152-0.108c0.449-0.072,0.861-0.181,1.24-0.327l0.434,1.739c-0.494,0.203-1.103,0.369-1.825,0.5
		c-0.725,0.129-1.348,0.194-1.87,0.194c-1.216,0-2.195-0.369-2.934-1.107c-0.74-0.739-1.108-1.732-1.108-2.979L189.85,124.391
		L189.85,124.391z"/>
	<path fill="#6D6E71" d="M217.279,156.124h-2.173v-12.607c0-2.927-0.413-5.057-1.239-6.39c-0.827-1.333-2.152-1.999-3.978-1.999
		c-0.955,0-1.905,0.173-2.847,0.521c-0.941,0.349-1.812,0.841-2.607,1.479c-0.799,0.638-1.5,1.384-2.108,2.238
		c-0.609,0.855-1.058,1.776-1.349,2.759v13.998h-2.173v-22.604h1.999v5.391c0.464-0.871,1.044-1.659,1.74-2.371
		c0.694-0.708,1.462-1.317,2.303-1.824s1.747-0.898,2.718-1.174c0.971-0.275,1.962-0.413,2.978-0.413
		c2.462,0,4.201,0.861,5.216,2.586c1.014,1.725,1.521,4.195,1.521,7.411V156.124L217.279,156.124z"/>
	<path fill="#6D6E71" d="M231.623,156.558c-1.594,0-3.072-0.312-4.433-0.935c-1.363-0.623-2.543-1.479-3.544-2.565
		c-1-1.087-1.781-2.341-2.346-3.76c-0.564-1.419-0.847-2.941-0.847-4.563c0-1.595,0.283-3.093,0.847-4.499
		c0.565-1.405,1.34-2.637,2.326-3.695c0.985-1.058,2.157-1.891,3.521-2.5c1.362-0.608,2.826-0.911,4.39-0.911
		c1.594,0,3.064,0.311,4.413,0.934c1.347,0.623,2.513,1.464,3.5,2.522c0.984,1.057,1.76,2.289,2.325,3.693
		c0.565,1.406,0.847,2.892,0.847,4.456c0,0.145-0.008,0.326-0.022,0.543c-0.015,0.218-0.021,0.354-0.021,0.413h-19.865
		c0.087,1.305,0.392,2.514,0.913,3.63c0.521,1.115,1.18,2.079,1.978,2.891c0.796,0.812,1.717,1.449,2.761,1.913
		c1.042,0.462,2.157,0.694,3.346,0.694c0.782,0,1.558-0.109,2.325-0.327c0.768-0.216,1.479-0.513,2.13-0.891
		c0.653-0.376,1.232-0.832,1.739-1.368c0.507-0.535,0.906-1.124,1.195-1.761l1.914,0.522c-0.348,0.811-0.834,1.557-1.456,2.237
		c-0.623,0.683-1.348,1.27-2.174,1.762c-0.825,0.493-1.732,0.877-2.717,1.151C233.68,156.42,232.667,156.558,231.623,156.558z
		 M240.49,143.952c-0.086-1.333-0.383-2.55-0.89-3.652c-0.507-1.101-1.16-2.049-1.956-2.848c-0.799-0.798-1.717-1.42-2.76-1.868
		c-1.044-0.448-2.161-0.674-3.349-0.674c-1.188,0-2.304,0.224-3.346,0.674c-1.044,0.448-1.964,1.071-2.761,1.868
		c-0.797,0.799-1.434,1.754-1.911,2.869c-0.48,1.116-0.761,2.327-0.848,3.63L240.49,143.952L240.49,143.952z"/>
	<path fill="#6D6E71" d="M256.312,135.476c-2.058,0.059-3.84,0.659-5.347,1.804c-1.506,1.145-2.564,2.717-3.173,4.717v14.126h-2.173
		v-22.604h2.043v5.563c0.782-1.593,1.819-2.89,3.109-3.89c1.289-1.001,2.672-1.572,4.15-1.717c0.291,0,0.551-0.008,0.782-0.022
		c0.231-0.014,0.435-0.021,0.608-0.021V135.476z"/>
	<path fill="#6D6E71" d="M276.699,156.558c-1.564,0-3.015-0.325-4.348-0.979c-1.331-0.651-2.482-1.521-3.455-2.606
		c-0.973-1.088-1.723-2.333-2.26-3.739c-0.536-1.404-0.804-2.86-0.804-4.369c0-1.564,0.261-3.058,0.781-4.477
		c0.522-1.419,1.246-2.667,2.173-3.739c0.928-1.072,2.022-1.928,3.283-2.564c1.26-0.638,2.645-0.955,4.152-0.955
		c0.983,0,1.918,0.144,2.802,0.435c0.883,0.289,1.696,0.673,2.434,1.15c0.74,0.479,1.414,1.037,2.023,1.674
		c0.607,0.639,1.131,1.319,1.563,2.043v-14.04h2.175v28.689c0,0.726,0.304,1.087,0.912,1.087v1.957
		c-0.145,0.026-0.275,0.043-0.391,0.043c-0.116,0-0.233,0-0.349,0c-0.637,0-1.151-0.203-1.544-0.608
		c-0.39-0.406-0.587-0.854-0.587-1.348v-2.608c-0.928,1.507-2.166,2.71-3.717,3.608C279.995,156.107,278.38,156.558,276.699,156.558
		z M277.09,154.602c0.783,0,1.624-0.158,2.521-0.478c0.899-0.318,1.739-0.761,2.521-1.327c0.781-0.564,1.442-1.208,1.979-1.934
		c0.535-0.725,0.846-1.507,0.934-2.347v-7.434c-0.318-0.811-0.774-1.587-1.368-2.325c-0.595-0.739-1.269-1.376-2.021-1.914
		c-0.755-0.534-1.565-0.962-2.435-1.281c-0.87-0.318-1.71-0.479-2.521-0.479c-1.305,0-2.484,0.283-3.542,0.847
		c-1.059,0.565-1.972,1.305-2.739,2.218s-1.355,1.957-1.761,3.129c-0.405,1.175-0.608,2.385-0.608,3.63
		c0,1.304,0.231,2.536,0.695,3.695s1.108,2.188,1.935,3.087c0.825,0.897,1.782,1.607,2.868,2.129
		C274.634,154.339,275.815,154.602,277.09,154.602z"/>
	<path fill="#6D6E71" d="M302.043,156.558c-1.595,0-3.073-0.312-4.435-0.935c-1.362-0.623-2.544-1.479-3.543-2.565
		c-1-1.087-1.782-2.341-2.346-3.76c-0.566-1.419-0.849-2.941-0.849-4.563c0-1.595,0.282-3.093,0.849-4.499
		c0.563-1.405,1.34-2.637,2.324-3.695c0.985-1.058,2.158-1.891,3.521-2.5c1.362-0.608,2.826-0.911,4.39-0.911
		c1.594,0,3.065,0.311,4.413,0.934s2.513,1.464,3.498,2.522c0.985,1.057,1.761,2.289,2.326,3.693
		c0.565,1.406,0.848,2.892,0.848,4.456c0,0.145-0.008,0.326-0.021,0.543c-0.016,0.218-0.022,0.354-0.022,0.413h-19.865
		c0.087,1.305,0.392,2.514,0.913,3.63c0.523,1.115,1.181,2.079,1.978,2.891c0.797,0.812,1.718,1.449,2.761,1.913
		c1.043,0.462,2.157,0.694,3.347,0.694c0.782,0,1.558-0.109,2.324-0.327c0.769-0.216,1.48-0.513,2.131-0.891
		c0.653-0.376,1.232-0.832,1.74-1.368c0.506-0.535,0.904-1.124,1.194-1.761l1.914,0.522c-0.349,0.811-0.834,1.557-1.458,2.237
		c-0.622,0.683-1.347,1.27-2.173,1.762c-0.825,0.493-1.732,0.877-2.717,1.151C304.099,156.42,303.086,156.558,302.043,156.558z
		 M310.91,143.952c-0.087-1.333-0.384-2.55-0.891-3.652c-0.508-1.101-1.161-2.049-1.956-2.848c-0.798-0.798-1.718-1.42-2.761-1.868
		s-2.159-0.674-3.348-0.674c-1.188,0-2.304,0.224-3.347,0.674c-1.043,0.448-1.965,1.071-2.76,1.868
		c-0.798,0.799-1.435,1.754-1.912,2.869c-0.479,1.116-0.761,2.327-0.849,3.63L310.91,143.952L310.91,143.952z"/>
	<path fill="#6D6E71" d="M323.255,156.558c-1.738,0-3.405-0.291-4.999-0.869c-1.594-0.581-2.985-1.449-4.173-2.608l1.087-1.478
		c1.218,1.101,2.479,1.911,3.781,2.434c1.304,0.521,2.739,0.782,4.304,0.782c1.969,0,3.557-0.413,4.761-1.238
		c1.202-0.826,1.802-1.978,1.802-3.456c0-0.696-0.151-1.283-0.456-1.762c-0.304-0.478-0.761-0.884-1.369-1.217
		s-1.362-0.631-2.26-0.892c-0.898-0.261-1.942-0.535-3.131-0.825c-1.275-0.288-2.382-0.578-3.325-0.87
		c-0.94-0.288-1.718-0.637-2.325-1.043c-0.608-0.405-1.064-0.897-1.368-1.477c-0.304-0.58-0.457-1.319-0.457-2.218
		c0-1.131,0.218-2.115,0.651-2.956c0.436-0.84,1.037-1.537,1.804-2.087c0.768-0.552,1.652-0.964,2.652-1.238
		c0.999-0.276,2.063-0.415,3.195-0.415c1.769,0,3.332,0.298,4.694,0.892c1.361,0.595,2.419,1.355,3.174,2.282l-1.217,1.174
		c-0.755-0.87-1.733-1.521-2.934-1.956c-1.203-0.436-2.485-0.651-3.849-0.651c-0.841,0-1.63,0.088-2.368,0.26
		c-0.739,0.174-1.386,0.45-1.935,0.826c-0.551,0.378-0.985,0.862-1.304,1.456c-0.32,0.594-0.479,1.298-0.479,2.108
		c0,0.668,0.108,1.203,0.327,1.608c0.216,0.406,0.563,0.754,1.042,1.043c0.479,0.29,1.096,0.543,1.847,0.763
		c0.754,0.216,1.652,0.455,2.697,0.717c1.419,0.348,2.68,0.681,3.78,0.999c1.102,0.321,2.022,0.711,2.76,1.175
		c0.74,0.463,1.305,1.014,1.696,1.651c0.392,0.637,0.587,1.449,0.587,2.434c0,2.029-0.791,3.646-2.37,4.847
		C328,155.957,325.892,156.558,323.255,156.558z"/>
	<path fill="#6D6E71" d="M335.209,156.124V133.52h2.173v22.604H335.209z"/>
	<path fill="#6D6E71" d="M351.553,156.471c-1.566,0-3-0.326-4.303-0.979c-1.305-0.651-2.436-1.52-3.393-2.607
		c-0.956-1.087-1.695-2.325-2.217-3.717c-0.521-1.39-0.782-2.824-0.782-4.304c0-1.536,0.253-3.013,0.761-4.435
		c0.507-1.418,1.225-2.672,2.151-3.758c0.929-1.088,2.037-1.951,3.328-2.588c1.287-0.638,2.7-0.955,4.236-0.955
		c1.972,0,3.688,0.514,5.152,1.543c1.462,1.028,2.716,2.282,3.76,3.76v-4.912h1.956v23.038c0,1.536-0.291,2.883-0.871,4.042
		c-0.579,1.159-1.354,2.123-2.324,2.891c-0.972,0.768-2.103,1.349-3.39,1.739c-1.292,0.392-2.646,0.587-4.065,0.587
		c-1.305,0-2.479-0.125-3.521-0.369c-1.042-0.247-1.964-0.595-2.761-1.044c-0.797-0.448-1.507-0.999-2.13-1.651
		s-1.166-1.369-1.628-2.152l1.476-1c0.899,1.537,2.116,2.659,3.653,3.369c1.536,0.71,3.173,1.065,4.911,1.065
		c1.159,0,2.253-0.16,3.282-0.479c1.028-0.318,1.927-0.787,2.695-1.413c0.768-0.622,1.376-1.397,1.826-2.326
		c0.448-0.927,0.673-2.013,0.673-3.259v-4.956c-0.928,1.45-2.157,2.623-3.693,3.521
		C354.797,156.021,353.204,156.471,351.553,156.471z M352.075,154.602c0.955,0,1.883-0.181,2.78-0.543
		c0.898-0.362,1.718-0.834,2.457-1.414c0.738-0.579,1.354-1.231,1.848-1.956c0.492-0.724,0.781-1.449,0.868-2.173v-7.434
		c-0.348-0.869-0.812-1.674-1.39-2.412c-0.581-0.74-1.238-1.37-1.978-1.892c-0.74-0.521-1.537-0.935-2.391-1.24
		c-0.855-0.304-1.718-0.456-2.587-0.456c-1.362,0-2.58,0.291-3.652,0.87c-1.071,0.58-1.978,1.333-2.716,2.262
		c-0.74,0.927-1.305,1.977-1.696,3.15c-0.392,1.175-0.586,2.354-0.586,3.542c0,1.305,0.23,2.537,0.693,3.696
		c0.465,1.159,1.109,2.188,1.934,3.085c0.828,0.899,1.783,1.609,2.87,2.13C349.617,154.341,350.799,154.602,352.075,154.602z"/>
	<path fill="#6D6E71" d="M385.631,156.124h-2.174v-12.607c0-2.927-0.412-5.057-1.238-6.39s-2.152-1.999-3.977-1.999
		c-0.956,0-1.907,0.173-2.847,0.521c-0.943,0.349-1.813,0.841-2.609,1.479c-0.798,0.638-1.5,1.384-2.107,2.238
		c-0.609,0.855-1.059,1.776-1.348,2.759v13.998h-2.174v-22.604h1.998v5.391c0.465-0.871,1.044-1.659,1.739-2.371
		c0.695-0.708,1.463-1.317,2.304-1.824s1.745-0.898,2.717-1.174s1.963-0.413,2.979-0.413c2.463,0,4.2,0.861,5.216,2.586
		c1.015,1.725,1.521,4.195,1.521,7.411V156.124L385.631,156.124z"/>
</g>
<polygon fill="none" stroke="#FFFFFF" stroke-width="0.5" stroke-miterlimit="10" points="85.417,235.616 58.494,271.417 
	31.573,235.616 58.494,199.816 "/>
<polygon fill="#F3C3A3" points="313.906,63.334 285.955,100.501 258.004,63.334 285.955,26.167 "/>
<polygon fill="#ADCFED" points="258.887,63.334 230.937,100.501 202.986,63.334 230.937,26.167 "/>
<g>
	<polygon fill="#BBBDBF" stroke="#FFFFFF" stroke-width="1.8871" stroke-miterlimit="10" points="297.564,63.329 287.384,76.869 
		280.676,85.804 258.785,114.903 220.004,63.329 229.458,50.761 230.044,49.986 237.422,40.174 237.781,39.702 258.785,11.764 	"/>
	<g>
		<g>
			<path fill="#FFFFFF" d="M281.213,58.698c-2.929-1.533-7.308-2.21-12.483-2.21c-1.224,0-0.425,0.065-1.868,0.09l-0.563,1.671
				c0.352-0.015,0.115-0.015,0.375-0.015c4.118,0,8.293,0.994,11.53,3.587c3.678,2.983,4.819,7.012,4.819,11.097
				c0,10.234-8.098,15.615-16.552,15.615c-1.159,0-2.878-0.049-4.828-0.873c-0.163-1.605-0.293-7.606-0.31-10.795
				c-1.672,1.988-4.095,3.062-5.44,3.413c-0.033,4.893-0.122,6.801-0.294,7.429c-1.068,0.334-3.391,1.739-4.229,1.781l-0.171,1.01
				c1.06-0.049,10.445-0.098,12.923-0.098c7.175,0,12.639-1.777,16.554-4.599l6.71-8.929c0.733-2.104,1.084-4.321,1.084-6.547
				C288.469,65.955,286.39,61.389,281.213,58.698z"/>
		</g>
		<g>
			<path fill="#FFFFFF" d="M265.467,56.562l-0.359,1.003c-0.391,0.05-2.838,0.938-3.823,1.19v15.688
				c-0.669,1.663-2.92,3.221-5.48,4.509v-5.888c0.017-0.464,0.033-0.994,0.042-1.508c-0.312,0.163-0.864,0.4-1.542,0.4
				c-1.493,0.163-3.4,0.26-4.468,0.26c-2.879,0-8.016-0.291-11.734-2.308c-5.577-3.025-8.806-8.454-8.806-14.456
				c0-1.99,0.269-3.816,0.75-5.472l7.371-9.801c3.727-2.373,7.787-3.123,11.887-3.123c3.808,0,7.787,0.416,9.248,0.986
				c0.18-0.766,1.329-3.244,1.467-4.256l1.012-0.237c-0.261,1.876-0.752,10.372-0.612,14.84l-1.028-0.578
				c-0.081-1.623-1.287-4.003-1.467-5.104c-1.149-1.483-3.31-3.962-10.526-3.962c-7.706,0-12.835,6.188-12.835,13.87
				c0,7.836,6.149,17.875,15.713,17.875c0.849,0,2.487-0.107,4.036-0.589c0,0,0.792-0.187,1.607-0.88
				c0.04-0.416,0.065-1.036,0.089-1.835c0.008-0.751,0.025-1.656,0.025-2.7v-2.551c0-0.604-0.01-1.102-0.025-1.525
				c-0.023-0.637-0.073-1.133-0.154-1.646c-0.889-0.1-3.629-1.004-4.468-1.199l-0.261-1.003c2.29,0.091,5.708,0.14,7.249,0.14
				C260.5,56.701,264.937,56.652,265.467,56.562z"/>
		</g>
	</g>
</g>
</svg>
