<?xml version="1.0" encoding="utf-8"?>
<!-- Generator: Adobe Illustrator 18.0.0, SVG Export Plug-In . SVG Version: 6.00 Build 0)  -->
<!DOCTYPE svg PUBLIC "-//W3C//DTD SVG 1.1//EN" "http://www.w3.org/Graphics/SVG/1.1/DTD/svg11.dtd">
<svg version="1.1" id="Layer_1" xmlns="http://www.w3.org/2000/svg" xmlns:xlink="http://www.w3.org/1999/xlink" x="0px" y="0px"
	 viewBox="0 0 40 40" enable-background="new 0 0 40 40" xml:space="preserve">
<path fill="#414042" d="M-9-69.8c-9.4,0-17,7.6-17,17c0,9.4,7.6,17,17,17c9.4,0,17-7.6,17-17C8-62.1,0.4-69.8-9-69.8z M-2.2-55.4
	c0,0.2,0,0.3,0,0.5c0,4.6-3.5,9.9-10,9.9c-2,0-3.8-0.6-5.3-1.6c0.3,0,0.5,0,0.8,0c1.6,0,3.2-0.6,4.3-1.5c-1.5,0-2.8-1-3.3-2.4
	c0.2,0,0.4,0.1,0.7,0.1c0.3,0,0.5,0,0.8-0.1c-1.6-0.3-2.9-1.7-2.9-3.4v0c1,0.3,1.1,0.4,1.7,0.4c-0.9-0.6-1.5-1.7-1.5-2.9
	c0-0.7,0.2-1.2,0.5-1.8c1.7,2.1,4.3,3.5,7.2,3.7c-0.1-0.3-0.1-0.5-0.1-0.8c0-1.9,1.6-3.5,3.5-3.5c1,0,1.9,0.4,2.6,1.1
	c0.8-0.2,1.6-0.5,2.2-0.9c-0.3,0.8-0.8,1.5-1.5,1.9c0.7-0.1,1.4-0.3,2-0.5C-0.9-56.5-1.5-55.9-2.2-55.4z"/>
<path fill="#414042" d="M54-51.6c-9.4,0-17,7.6-17,17c0,9.4,7.6,17,17,17c9.4,0,17-7.6,17-17C71-44,63.4-51.6,54-51.6z M57.8-37.5
	l-0.2,3h-2.6v8h-3v-8h-2v-3h2v-1.7c0-0.8-0.1-1.9,0.4-2.6c0.6-0.8,1.3-1.3,2.7-1.3c2.2,0,3.1,0.3,3.1,0.3l-0.5,2.6
	c0,0-0.8-0.2-1.4-0.2c-0.7,0-1.3,0.2-1.3,0.9v2H57.8z"/>
<g>
	<path fill="#414042" d="M-53-32.4c-1.4,0-2.7-1.5-2.9-3.3c-0.2-1.8,0.7-3.2,2-3.1c1.4,0,2.7,1.5,2.9,3.2
		C-50.8-33.8-51.7-32.4-53-32.4z"/>
	<path fill="#414042" d="M-49.8-26.7c0,0.2,0.1,0.4,0.1,0.5c0,1.5-1,2.7-3.8,2.7c-2,0-3.5-1.3-3.5-2.8c0-1.5,1.8-2.8,3.8-2.7
		c0.5,0,0.9,0.1,1.3,0.2C-50.8-28-50-27.5-49.8-26.7z"/>
	<path fill="#414042" d="M-50.8-48c-9.4,0-17,7.6-17,17c0,9.4,7.6,17,17,17c9.4,0,17-7.6,17-17C-33.7-40.4-41.4-48-50.8-48z
		 M-49.1-35.8c0,0.4-0.1,0.8-0.2,1.2c-0.3,0.6-0.7,1.2-1.2,1.6c-0.7,0.5-0.9,0.8-1,1.2c0,0.1,0,0.2,0,0.4c0,0.1-0.1,0.4,0.4,0.8
		c0,0,0.8,0.6,1.1,0.8c0.3,0.2,0.6,0.5,0.8,0.8c0.1,0.1,0.2,0.2,0.3,0.4c0.5,0.6,0.6,1.4,0.6,2.3c0,0.8-0.4,1.7-1,2.3
		c-0.3,0.3-0.6,0.5-1.1,0.8c-0.4,0.2-0.9,0.4-1.4,0.5c-0.3,0.1-0.7,0.1-1.1,0.2c-0.2,0-0.4,0-0.6,0c-2.9,0-5.4-1.2-5.4-3.1
		c0-1.2,0.9-2.4,2.2-3.1c0.4-0.2,0.9-0.4,1.4-0.5s1-0.2,1.6-0.2c0.3,0,0.6,0,0.9,0l0,0c-0.1-0.2-0.3-0.3-0.4-0.5
		c-0.1-0.1-0.1-0.2-0.2-0.4c-0.1-0.2-0.1-0.4-0.1-0.6c0-0.1,0-0.2,0-0.3c0-0.2,0.1-0.7,0.2-0.7c0,0,0,0,0,0c-0.2,0-0.3,0-0.5,0
		c-1.8,0-3.2-1.1-3.7-2.5c-0.2-0.5-0.3-1-0.3-1.5c0-2.1,2.2-4,4.6-4h5.3l-1.2,1h-1.7C-49.7-37.9-49.1-37.1-49.1-35.8z M-42.9-30.9
		h-2v2h-1v-2h-2v-1h2v-2h1v2h2V-30.9z"/>
</g>
<path fill="#414042" d="M20,2.6C10.4,2.6,2.6,10.4,2.6,20c0,9.6,7.8,17.4,17.4,17.4c9.6,0,17.4-7.8,17.4-17.4
	C37.4,10.4,29.6,2.6,20,2.6z M15,29h-3V17h3V29z M13.3,15L13.3,15c-1.3,0-2.1-0.8-2.1-1.8c0-1.1,0.8-1.9,2.1-1.9c1.3,0,2,0.8,2,1.9
	C15.4,14.2,14.6,15,13.3,15z M28,29h-3v-7.3c0-1.5-0.7-2.5-2-2.5c-1,0-2.2,0.7-2.4,1.3c-0.1,0.2-0.6,0.6-0.6,0.9V29h-2.8
	c0,0,0.1-10,0-12H20v1.1c0-0.7,1.6-1.8,3.5-1.8c2.4,0,4.5,1.6,4.5,4.9V29z"/>
</svg>
