<?xml version="1.0" encoding="utf-8"?>
<!-- Generator: Adobe Illustrator 18.0.0, SVG Export Plug-In . SVG Version: 6.00 Build 0)  -->
<!DOCTYPE svg PUBLIC "-//W3C//DTD SVG 1.1//EN" "http://www.w3.org/Graphics/SVG/1.1/DTD/svg11.dtd">
<svg version="1.1" id="Layer_1" xmlns="http://www.w3.org/2000/svg" xmlns:xlink="http://www.w3.org/1999/xlink" x="0px" y="0px"
	 viewBox="0 0 40 40" enable-background="new 0 0 40 40" xml:space="preserve">
<path fill="#414042" d="M-9-69.8c-9.4,0-17,7.6-17,17c0,9.4,7.6,17,17,17c9.4,0,17-7.6,17-17C8-62.1,0.4-69.8-9-69.8z M-2.2-55.4
	c0,0.2,0,0.3,0,0.5c0,4.6-3.5,9.9-10,9.9c-2,0-3.8-0.6-5.3-1.6c0.3,0,0.5,0,0.8,0c1.6,0,3.2-0.6,4.3-1.5c-1.5,0-2.8-1-3.3-2.4
	c0.2,0,0.4,0.1,0.7,0.1c0.3,0,0.5,0,0.8-0.1c-1.6-0.3-2.9-1.7-2.9-3.4v0c1,0.3,1.1,0.4,1.7,0.4c-0.9-0.6-1.5-1.7-1.5-2.9
	c0-0.7,0.2-1.2,0.5-1.8c1.7,2.1,4.3,3.5,7.2,3.7c-0.1-0.3-0.1-0.5-0.1-0.8c0-1.9,1.6-3.5,3.5-3.5c1,0,1.9,0.4,2.6,1.1
	c0.8-0.2,1.6-0.5,2.2-0.9c-0.3,0.8-0.8,1.5-1.5,1.9c0.7-0.1,1.4-0.3,2-0.5C-0.9-56.5-1.5-55.9-2.2-55.4z"/>
<path fill="#414042" d="M54-51.6c-9.4,0-17,7.6-17,17c0,9.4,7.6,17,17,17c9.4,0,17-7.6,17-17C71-44,63.4-51.6,54-51.6z M57.8-37.5
	l-0.2,3h-2.6v8h-3v-8h-2v-3h2v-1.7c0-0.8-0.1-1.9,0.4-2.6c0.6-0.8,1.3-1.3,2.7-1.3c2.2,0,3.1,0.3,3.1,0.3l-0.5,2.6
	c0,0-0.8-0.2-1.4-0.2c-0.7,0-1.3,0.2-1.3,0.9v2H57.8z"/>
<g>
	<path fill="#414042" d="M17.7,18.6c-1.4,0-2.7-1.5-2.9-3.3c-0.2-1.8,0.7-3.2,2-3.1c1.4,0,2.7,1.5,2.9,3.2
		C20,17.2,19.1,18.6,17.7,18.6z"/>
	<path fill="#414042" d="M21,24.3c0,0.2,0.1,0.4,0.1,0.5c0,1.5-1,2.7-3.8,2.7c-2,0-3.5-1.3-3.5-2.8c0-1.5,1.8-2.8,3.8-2.7
		c0.5,0,0.9,0.1,1.3,0.2C19.9,23,20.7,23.5,21,24.3z"/>
	<path fill="#414042" d="M20,3C10.6,3,3,10.6,3,20c0,9.4,7.6,17,17,17c9.4,0,17-7.6,17-17C37,10.6,29.4,3,20,3z M21.6,15.2
		c0,0.4-0.1,0.8-0.2,1.2c-0.3,0.6-0.7,1.2-1.2,1.6c-0.7,0.5-0.9,0.8-1,1.2c0,0.1,0,0.2,0,0.4c0,0.1-0.1,0.4,0.4,0.8
		c0,0,0.8,0.6,1.1,0.8c0.3,0.2,0.6,0.5,0.8,0.8c0.1,0.1,0.2,0.2,0.3,0.4c0.5,0.6,0.6,1.4,0.6,2.3c0,0.8-0.4,1.7-1,2.3
		c-0.3,0.3-0.6,0.5-1.1,0.8c-0.4,0.2-0.9,0.4-1.4,0.5c-0.3,0.1-0.7,0.1-1.1,0.2c-0.2,0-0.4,0-0.6,0c-2.9,0-5.4-1.2-5.4-3.1
		c0-1.2,0.9-2.4,2.2-3.1c0.4-0.2,0.9-0.4,1.4-0.5s1-0.2,1.6-0.2c0.3,0,0.6,0,0.9,0l0,0c-0.1-0.2-0.3-0.3-0.4-0.5
		c-0.1-0.1-0.1-0.2-0.2-0.4c-0.1-0.2-0.1-0.4-0.1-0.6c0-0.1,0-0.2,0-0.3c0-0.2,0.1-0.7,0.2-0.7c0,0,0,0,0,0c-0.2,0-0.3,0-0.5,0
		c-1.8,0-3.2-1.1-3.7-2.5c-0.2-0.5-0.3-1-0.3-1.5c0-2.1,2.2-4,4.6-4h5.3l-1.2,1h-1.7C21.1,13.1,21.6,13.9,21.6,15.2z M27.9,20.1h-2
		v2h-1v-2h-2v-1h2v-2h1v2h2V20.1z"/>
</g>
</svg>
