<?xml version="1.0" encoding="utf-8"?>
<!-- Generator: Adobe Illustrator 18.0.0, SVG Export Plug-In . SVG Version: 6.00 Build 0)  -->
<!DOCTYPE svg PUBLIC "-//W3C//DTD SVG 1.1//EN" "http://www.w3.org/Graphics/SVG/1.1/DTD/svg11.dtd">
<svg version="1.1" id="Layer_1" xmlns="http://www.w3.org/2000/svg" xmlns:xlink="http://www.w3.org/1999/xlink" x="0px" y="0px"
	 viewBox="-64.5 -26.5 229 153" enable-background="new -64.5 -26.5 229 153" xml:space="preserve">
<g opacity="0.5">
	<path fill="#B3B3B3" d="M49.3,126.5c-29.9,0-59.7,0-89.5,0c-1.9,0-3.7-0.2-5.7-0.7c-2.9-0.6-5.7-1.2-8.5-2.1
		c-0.6-0.2-1.1-0.4-1.7-0.4c-0.2,0-0.4-0.1-0.5-0.4c-0.1-0.2-0.1-0.4-0.1-0.6c0-1.4,0-2.9,0-4.3c0-0.1,0-0.3,0.1-0.4
		c0.1-0.4,0.2-0.4,0.6-0.5c0.2,0,0.4,0,0.6,0c8.2,0,16.5,0,24.7,0c1,0,0.9,0,0.9-0.9c0-32.5,0-65.1,0-97.6c0-2.3,0.9-4.1,2.6-5.3
		c1-0.8,2.3-1.1,3.6-1.1c0.1,0,0.2,0,0.4,0c48.3,0,96.7,0,145.1,0c1.2,0,2.4,0.2,3.4,0.8c1.8,1.1,2.9,2.7,3.1,4.9
		c0.1,0.7,0.1,1.3,0.1,2c0,31.9,0,63.8,0,95.7c0,0.4,0,0.8-0.1,1.2c0,0.4,0.1,0.4,0.4,0.4c0.2,0,0.4,0,0.5,0c8.2,0,16.5,0,24.7,0
		c1,0,1.1,0.2,1,1c0,1.4,0,2.7,0,4.1c0,0.1,0,0.2,0,0.4c-0.1,0.4-0.2,0.6-0.6,0.6c-0.5,0-0.9,0.1-1.4,0.3c-2.7,0.9-5.5,1.5-8.3,2.1
		c-1.3,0.2-2.6,0.5-3.9,0.7c-0.4,0.1-0.8,0.1-1.2,0.1c-1.7,0-3.3,0-5,0C106.3,126.5,77.8,126.5,49.3,126.5z M49.2,117.2
		c25.9,0,51.7,0,77.7,0c0.2,0,0.4,0,0.6,0c0.4,0,0.5-0.1,0.5-0.5c0-0.2,0-0.4,0-0.7c0-25.8,0-51.5,0-77.2c0-6.8,0-13.6,0-20.4
		c0-2.3-1.1-3.9-3.1-5c-0.9-0.5-1.8-0.7-2.8-0.7c-35.8,0-71.6,0-107.3,0c-12.8,0-25.6,0-38.5,0c-2.2,0-3.9,1.1-5,3
		c-0.5,0.9-0.7,2-0.7,3c0,32.4,0,65,0,97.4c0,0.1,0,0.2,0,0.4c0,0.1,0,0.1,0,0.2c0,0.2,0.1,0.4,0.4,0.4c0.2,0,0.4,0,0.7,0
		C-2.5,117.2,23.4,117.2,49.2,117.2z M49.3,122.9c34.8,0,69.5,0,104.3,0c0.2,0,0.4,0,0.6,0c0.4,0,0.4-0.1,0.4-0.4c0-0.3,0-0.6,0-0.9
		c0-1.1,0-2.3,0-3.4c0-0.5-0.1-0.5-0.5-0.6c-0.2,0-0.4,0-0.5,0c-69.5,0-139.2,0-208.7,0c-0.2,0-0.4,0-0.5,0c-0.5,0-0.5,0.1-0.5,0.5
		c0,1.2,0,2.5,0,3.7c0,1.1-0.2,1,1,1C-20.3,122.9,14.5,122.9,49.3,122.9z M-53.1,123.6c0.2,0.1,0.4,0.1,0.6,0.2
		c2.4,0.7,4.8,1.2,7.3,1.7c1.8,0.4,3.6,0.6,5.5,0.6c49.3,0,98.5,0,147.8,0c10.5,0,21,0,31.5,0c0.6,0,1.2-0.1,1.8-0.1
		c1.5-0.2,3.1-0.5,4.7-0.9c1.7-0.4,3.3-0.8,5-1.2c0.2-0.1,0.4-0.1,0.5-0.2c0-0.1,0-0.1-0.1-0.1c-0.2,0-0.3-0.1-0.5-0.1
		C136.8,123.3-52.6,123.4-53.1,123.6z"/>
	<path fill="#B3B3B3" d="M49.3,19.2c24.1,0,48.3,0,72.4,0c0.9,0,0.8-0.1,0.8,0.9c0,29.9,0,59.8,0,89.7c0,0.9,0.1,0.9-0.9,0.9
		c-48.2,0-96.5,0-144.7,0c-0.2,0-0.3,0-0.5,0c-0.4,0-0.4-0.1-0.4-0.4c0-0.1,0-0.2,0-0.4c0-29.9,0-59.9,0-89.8c0-0.9-0.1-0.8,0.8-0.8
		C1.1,19.2,25.2,19.2,49.3,19.2z M122,19.7c-0.4,0-0.6,0-0.8,0c-48,0-95.9,0-143.8,0c-0.8,0-0.9-0.2-0.9,0.9c0,29.6,0,59.2,0,88.7
		c0,0.9,0,0.9,0.8,0.9c47.9,0,95.8,0,143.8,0c0.2,0,0.3,0,0.5,0c0.2,0,0.4-0.1,0.4-0.4c0-0.2,0-0.4,0-0.6c0-22.7,0-45.4,0-68.1
		c0-6.9,0-13.8,0-20.7C122,20.3,122,20,122,19.7z"/>
</g>
<path fill="none" stroke="#B3B3B3" stroke-miterlimit="10" d="M131.1,25"/>
<path fill="none" stroke="#B3B3B3" stroke-miterlimit="10" d="M-32.6,14.4"/>
<path fill="none" stroke="#B3B3B3" stroke-miterlimit="10" d="M131.1,89.5"/>
<path fill="none" stroke="#B3B3B3" stroke-miterlimit="10" d="M-32.6,79"/>
<g>
	<path fill="none" stroke="#535454" stroke-width="0.5" stroke-miterlimit="10" d="M59.7,78.7c0-3.4-2.8-6.3-6.2-6.3
		c-3.4,0-6.3,2.8-6.3,6.3c0,3.5,2.8,6.3,6.3,6.3C56.8,85,59.7,82.1,59.7,78.7z M68.6,78.6c1.8-3.2,3.7-6.3,5.5-9.5
		c-0.9-0.5-1.8-1-2.7-1.6c-1.8,3.2-3.7,6.3-5.5,9.5C66.8,77.6,67.7,78.1,68.6,78.6z M32.9,68.8c1.8,3.2,3.7,6.3,5.5,9.5
		c0.9-0.5,1.8-1,2.7-1.6c-1.8-3.2-3.7-6.3-5.5-9.5C34.6,67.8,33.8,68.3,32.9,68.8z"/>
	<path fill="none" stroke="#535454" stroke-width="0.5" stroke-miterlimit="10" d="M53.4,51c-2.1,0-4.3,0-6.4,0
		c-2.4,0-4,1.8-3.8,4.2c0.2,2.7,0.4,5.3,0.6,8c0.2,2.7,2.1,4.6,4.8,4.6c3.1,0,6.2,0,9.3,0c2.6,0,4.7-2,4.9-4.5
		c0.2-2.3,0.5-4.6,0.7-6.9c0.1-0.8,0.2-1.6,0.1-2.4c-0.3-1.8-1.8-2.9-3.7-2.9C57.7,50.9,55.5,51,53.4,51z"/>
</g>
<g>
	<path fill="none" stroke="#0071BC" stroke-width="0.5" stroke-miterlimit="10" d="M29.9,68.2c2.1-1.2,4.2-2.4,6.3-3.7
		c0.5,0.9,1,1.7,1.5,2.6c0.5-0.3,1-0.6,1.4-0.8c-0.3-1.1-0.6-2.1-0.8-3.1c-0.4-2.7-1-5.4-0.9-8.1c0.4-5.9,3.2-10.2,8.7-12.7
		c1.9-0.9,4-1.2,6.1-1.2c1.8,0,3.6,0,5.4,0.3c5.9,1.2,10.5,6,11.3,12c0.2,1.6,0.2,3.3-0.1,4.9c-0.3,1.8-0.5,3.7-0.9,5.5
		c-0.2,0.8-0.5,1.6-0.7,2.5c0.6,0.3,1.1,0.6,1.7,1c0.5-0.9,1-1.7,1.5-2.6c2.1,1.2,4.2,2.4,6.3,3.7c-2.5,4.4-5,8.7-7.6,13.1
		c-2.1-1.2-4.2-2.4-6.3-3.7c0.6-1,1.1-1.9,1.6-2.9c-0.7-0.4-1.3-0.8-2-1.1c-0.6,0.5-1.1,1-1.6,1.5c1.8,4.3-0.1,8.3-2.7,10.2
		c-2.9,2.1-6.8,2.1-9.7,0.1c-2.6-1.8-4.7-5.7-2.9-10.2c-0.6-0.5-1.2-1-1.8-1.6c-0.5,0.3-1.1,0.6-1.7,1c0.5,0.9,1.1,1.9,1.6,2.8
		c-2.1,1.2-4.2,2.4-6.3,3.7C34.9,77,32.4,72.6,29.9,68.2z"/>
</g>
<g>
	<g>
		<line fill="none" stroke="#535454" stroke-miterlimit="10" x1="6.3" y1="90.4" x2="29.1" y2="76.7"/>
		<g>
			<polygon fill="#535454" points="6.4,89.7 2.2,87.4 1.2,88 5.4,90.3 4.4,90.9 0.2,88.5 -0.8,89.1 3.5,91.5 2.5,92.1 -1.8,89.7 
				-2.7,90.3 1.5,92.7 0.5,93.3 1,94.1 2,93.5 2.1,98.4 3.1,97.8 3,92.9 4,92.3 4.1,97.2 5,96.6 5,91.8 5.9,91.2 6,96 7,95.4 
				6.9,90.6 			"/>
		</g>
	</g>
</g>
<g>
	<g>
		<line fill="none" stroke="#535454" stroke-miterlimit="10" x1="96.3" y1="89.7" x2="74.9" y2="76.7"/>
		<g>
			<polygon fill="#535454" points="95.7,89.9 95.6,94.8 96.6,95.4 96.7,90.5 97.7,91.1 97.6,96 98.6,96.6 98.7,91.7 99.6,92.3 
				99.5,97.2 100.5,97.8 100.6,92.9 101.6,93.5 102.1,92.7 101.1,92.1 105.4,89.7 104.4,89.1 100.1,91.5 99.2,90.9 103.4,88.5 
				102.5,88 98.2,90.3 97.2,89.7 101.5,87.4 100.5,86.8 96.3,89.1 			"/>
		</g>
	</g>
</g>
<g>
	<g>
		<line fill="none" stroke="#535454" stroke-miterlimit="10" x1="73.1" y1="51" x2="102" y2="33.6"/>
		<g>
			<polygon fill="#535454" points="101.3,38.8 100.3,38.6 101.7,33.8 96.9,32.8 97.1,31.8 102.9,33.1 			"/>
		</g>
	</g>
</g>
<g>
	<g>
		<line fill="none" stroke="#535454" stroke-miterlimit="10" x1="32.3" y1="51" x2="3.3" y2="33.6"/>
		<g>
			<polygon fill="#535454" points="8.3,31.8 8.5,32.8 3.7,33.8 5.1,38.6 4.1,38.8 2.4,33.1 			"/>
		</g>
	</g>
</g>
<g id="pencil2">
</g>
</svg>
