<?xml version="1.0" encoding="utf-8"?>
<!-- Generator: Adobe Illustrator 18.0.0, SVG Export Plug-In . SVG Version: 6.00 Build 0)  -->
<!DOCTYPE svg PUBLIC "-//W3C//DTD SVG 1.1//EN" "http://www.w3.org/Graphics/SVG/1.1/DTD/svg11.dtd">
<svg version="1.1" id="Layer_1" xmlns="http://www.w3.org/2000/svg" xmlns:xlink="http://www.w3.org/1999/xlink" x="0px" y="0px"
	 viewBox="-64.5 -26.5 229 153" enable-background="new -64.5 -26.5 229 153" xml:space="preserve">
<g opacity="0.5">
	<path fill="#B3B3B3" d="M49.3,115.9c-29.9,0-59.7,0-89.5,0c-1.9,0-3.7-0.2-5.7-0.7c-2.9-0.6-5.7-1.2-8.5-2.1
		c-0.6-0.2-1.1-0.4-1.7-0.4c-0.2,0-0.4-0.1-0.5-0.4c-0.1-0.2-0.1-0.4-0.1-0.6c0-1.4,0-2.9,0-4.3c0-0.1,0-0.3,0.1-0.4
		c0.1-0.4,0.2-0.4,0.6-0.5c0.2,0,0.4,0,0.6,0c8.2,0,16.5,0,24.7,0c1,0,0.9,0,0.9-0.9c0-32.5,0-65.1,0-97.6c0-2.3,0.9-4.1,2.6-5.3
		c1-0.8,2.3-1.1,3.6-1.1c0.1,0,0.2,0,0.4,0c48.3,0,96.7,0,145.1,0c1.2,0,2.4,0.2,3.4,0.8c1.8,1.1,2.9,2.7,3.1,4.9
		c0.1,0.7,0.1,1.3,0.1,2c0,31.9,0,63.8,0,95.7c0,0.4,0,0.8-0.1,1.2c0,0.4,0.1,0.4,0.4,0.4c0.2,0,0.4,0,0.5,0c8.2,0,16.5,0,24.7,0
		c1,0,1.1,0.2,1,1c0,1.4,0,2.7,0,4.1c0,0.1,0,0.2,0,0.4c-0.1,0.4-0.2,0.6-0.6,0.6c-0.5,0-0.9,0.1-1.4,0.3c-2.7,0.9-5.5,1.5-8.3,2.1
		c-1.3,0.2-2.6,0.5-3.9,0.7c-0.4,0.1-0.8,0.1-1.2,0.1c-1.7,0-3.3,0-5,0C106.3,115.9,77.8,115.9,49.3,115.9z M49.2,106.6
		c25.9,0,51.7,0,77.7,0c0.2,0,0.4,0,0.6,0c0.4,0,0.5-0.1,0.5-0.5c0-0.2,0-0.4,0-0.7c0-25.8,0-51.5,0-77.2c0-6.8,0-13.6,0-20.4
		c0-2.3-1.1-3.9-3.1-5c-0.9-0.5-1.8-0.7-2.8-0.7c-35.8,0-71.6,0-107.3,0c-12.8,0-25.6,0-38.5,0c-2.2,0-3.9,1.1-5,3
		c-0.5,0.9-0.7,2-0.7,3c0,32.4,0,65,0,97.4c0,0.1,0,0.2,0,0.4c0,0.1,0,0.1,0,0.2c0,0.2,0.1,0.4,0.4,0.4c0.2,0,0.4,0,0.7,0
		C-2.5,106.6,23.4,106.6,49.2,106.6z M49.3,112.4c34.8,0,69.5,0,104.3,0c0.2,0,0.4,0,0.6,0c0.4,0,0.4-0.1,0.4-0.4c0-0.3,0-0.6,0-0.9
		c0-1.1,0-2.3,0-3.4c0-0.5-0.1-0.5-0.5-0.6c-0.2,0-0.4,0-0.5,0c-69.5,0-139.2,0-208.7,0c-0.2,0-0.4,0-0.5,0c-0.5,0-0.5,0.1-0.5,0.5
		c0,1.2,0,2.5,0,3.7c0,1.1-0.2,1,1,1C-20.3,112.4,14.5,112.4,49.3,112.4z M-53.1,113c0.2,0.1,0.4,0.1,0.6,0.2
		c2.4,0.7,4.8,1.2,7.3,1.7c1.8,0.4,3.6,0.6,5.5,0.6c49.3,0,98.5,0,147.8,0c10.5,0,21,0,31.5,0c0.6,0,1.2-0.1,1.8-0.1
		c1.5-0.2,3.1-0.5,4.7-0.9c1.7-0.4,3.3-0.8,5-1.2c0.2-0.1,0.4-0.1,0.5-0.2c0-0.1,0-0.1-0.1-0.1c-0.2,0-0.3-0.1-0.5-0.1
		C136.8,112.7-52.6,112.8-53.1,113z"/>
	<path fill="#B3B3B3" d="M49.3,8.6c24.1,0,48.3,0,72.4,0c0.9,0,0.8-0.1,0.8,0.9c0,29.9,0,59.8,0,89.7c0,0.9,0.1,0.9-0.9,0.9
		c-48.2,0-96.5,0-144.7,0c-0.2,0-0.3,0-0.5,0c-0.4,0-0.4-0.1-0.4-0.4c0-0.1,0-0.2,0-0.4c0-29.9,0-59.9,0-89.8c0-0.9-0.1-0.8,0.8-0.8
		C1.1,8.6,25.2,8.6,49.3,8.6z M122,9.1c-0.4,0-0.6,0-0.8,0c-48,0-95.9,0-143.8,0c-0.8,0-0.9-0.2-0.9,0.9c0,29.6,0,59.2,0,88.7
		c0,0.9,0,0.9,0.8,0.9c47.9,0,95.8,0,143.8,0c0.2,0,0.3,0,0.5,0c0.2,0,0.4-0.1,0.4-0.4c0-0.2,0-0.4,0-0.6c0-22.7,0-45.4,0-68.1
		c0-6.9,0-13.8,0-20.7C122,9.7,122,9.4,122,9.1z"/>
</g>
<path fill="none" stroke="#B3B3B3" stroke-miterlimit="10" d="M131.1,14.4"/>
<path fill="none" stroke="#B3B3B3" stroke-miterlimit="10" d="M-32.6,14.4"/>
<path fill="none" stroke="#B3B3B3" stroke-miterlimit="10" d="M131.1,79"/>
<path fill="none" stroke="#B3B3B3" stroke-miterlimit="10" d="M-32.6,79"/>
<g>
	<path fill="none" stroke="#535454" stroke-width="0.5" stroke-miterlimit="10" d="M58.6,65.7c0-2.9-2.3-5.2-5.2-5.2
		c-2.9,0-5.3,2.3-5.3,5.2c0,2.9,2.3,5.3,5.2,5.3C56.3,71,58.6,68.6,58.6,65.7z M66.1,65.7c1.5-2.7,3.1-5.3,4.6-7.9
		c-0.8-0.4-1.5-0.9-2.3-1.3c-1.5,2.7-3.1,5.3-4.6,7.9C64.6,64.8,65.3,65.2,66.1,65.7z M36.2,57.5c1.5,2.7,3.1,5.3,4.6,7.9
		c0.8-0.4,1.5-0.9,2.3-1.3c-1.5-2.7-3.1-5.3-4.6-7.9C37.7,56.6,37,57.1,36.2,57.5z"/>
	<path fill="none" stroke="#535454" stroke-width="0.5" stroke-miterlimit="10" d="M53.4,42.5c-1.8,0-3.6,0-5.4,0
		c-2,0-3.4,1.5-3.2,3.5c0.2,2.2,0.3,4.4,0.5,6.7c0.2,2.2,1.8,3.8,4,3.8c2.6,0,5.2,0,7.8,0c2.2,0,3.9-1.6,4.1-3.8
		c0.2-1.9,0.4-3.8,0.6-5.8c0.1-0.7,0.2-1.4,0.1-2c-0.2-1.5-1.5-2.4-3.1-2.4C57,42.5,55.2,42.5,53.4,42.5z"/>
</g>
<g>
	<path fill="none" stroke="#0071BC" stroke-width="0.5" stroke-miterlimit="10" d="M33.7,57c1.8-1,3.5-2,5.3-3.1
		c0.4,0.7,0.8,1.4,1.3,2.2c0.4-0.2,0.8-0.5,1.2-0.7c-0.2-0.9-0.5-1.7-0.7-2.6c-0.4-2.2-0.9-4.5-0.7-6.8c0.3-5,2.7-8.5,7.3-10.6
		c1.6-0.7,3.3-1,5.1-1c1.5,0,3,0,4.5,0.3c5,1,8.8,5,9.4,10c0.2,1.4,0.2,2.7-0.1,4.1c-0.2,1.5-0.5,3.1-0.7,4.6
		c-0.1,0.7-0.4,1.4-0.6,2.1c0.5,0.3,0.9,0.5,1.4,0.8c0.4-0.7,0.8-1.4,1.2-2.1c1.8,1,3.5,2,5.3,3.1c-2.1,3.7-4.2,7.3-6.3,11
		c-1.8-1-3.5-2-5.3-3.1c0.5-0.8,0.9-1.6,1.4-2.4c-0.6-0.3-1.1-0.6-1.6-1c-0.5,0.4-0.9,0.8-1.4,1.2c1.5,3.6-0.1,6.9-2.3,8.5
		c-2.4,1.8-5.7,1.8-8.1,0.1c-2.2-1.5-3.9-4.8-2.4-8.5c-0.5-0.4-1-0.9-1.5-1.3c-0.5,0.3-0.9,0.5-1.4,0.8c0.5,0.8,0.9,1.6,1.4,2.4
		c-1.8,1-3.5,2-5.3,3.1C37.9,64.3,35.8,60.7,33.7,57z"/>
</g>
<g>
	<g>
		<line fill="none" stroke="#535454" stroke-miterlimit="10" x1="6.3" y1="79.8" x2="29.1" y2="66.1"/>
		<g>
			<polygon fill="#535454" points="6.4,79.2 2.2,76.8 1.2,77.4 5.4,79.7 4.4,80.3 0.2,78 -0.8,78.5 3.5,80.9 2.5,81.5 -1.8,79.1 
				-2.7,79.7 1.5,82.1 0.5,82.7 1,83.5 2,82.9 2.1,87.8 3.1,87.2 3,82.3 4,81.8 4.1,86.6 5,86 5,81.2 5.9,80.6 6,85.4 7,84.9 
				6.9,80 			"/>
		</g>
	</g>
</g>
<g>
	<g>
		<line fill="none" stroke="#535454" stroke-miterlimit="10" x1="96.3" y1="79.2" x2="74.9" y2="66.1"/>
		<g>
			<polygon fill="#535454" points="95.7,79.4 95.6,84.2 96.6,84.8 96.7,80 97.7,80.6 97.6,85.4 98.6,86 98.7,81.1 99.6,81.7 
				99.5,86.6 100.5,87.2 100.6,82.3 101.6,82.9 102.1,82.1 101.1,81.5 105.4,79.1 104.4,78.6 100.1,80.9 99.2,80.3 103.4,78 
				102.5,77.4 98.2,79.7 97.2,79.1 101.5,76.8 100.5,76.2 96.3,78.5 			"/>
		</g>
	</g>
</g>
<g>
	<g>
		<line fill="none" stroke="#535454" stroke-miterlimit="10" x1="73.1" y1="40.4" x2="102" y2="23.1"/>
		<g>
			<polygon fill="#535454" points="101.3,28.3 100.3,28 101.7,23.3 96.9,22.2 97.1,21.3 102.9,22.5 			"/>
		</g>
	</g>
</g>
<g>
	<g>
		<line fill="none" stroke="#535454" stroke-miterlimit="10" x1="32.3" y1="40.4" x2="3.3" y2="23.1"/>
		<g>
			<polygon fill="#535454" points="8.3,21.3 8.5,22.2 3.7,23.3 5.1,28 4.1,28.3 2.4,22.5 			"/>
		</g>
	</g>
</g>
<text transform="matrix(1 0 0 1 -7.3335 60.0668)" fill="none" stroke="#4D4D4D" stroke-width="0.75" stroke-miterlimit="10" font-family="'Menlo-Regular'" font-size="14">&lt;/&gt;</text>
<g>
	<path fill="#4D4D4D" d="M99.4,48.3c0,0-0.1,0.1-0.1,0.2l-0.7,1.9c-0.1,0.2-0.1,0.4-0.1,0.6l0.1,8.5c0,0.1,0.1,0.3,0.2,0.4
		c0.1,0.1,0.2,0.1,0.4,0.1l1.3,0c0.1,0,0.3-0.1,0.4-0.2c0.1-0.1,0.1-0.2,0.1-0.4l-0.1-8.7c0-0.2-0.1-0.4-0.1-0.6l-0.7-1.7
		c-0.1-0.2-0.2-0.2-0.3-0.2C99.6,48.2,99.5,48.3,99.4,48.3z M99,51L99,51l1.3,0l0.1,7.4l-1.3,0L99,51z M100.5,59.5l-1.3,0l0-0.6
		l1.3,0L100.5,59.5z M100.3,50.4C100.3,50.4,100.3,50.4,100.3,50.4l-1.1,0.1l0.5-1.4L100.3,50.4z"/>
</g>
<g>
	<path fill="#4D4D4D" d="M104.3,48.3c0,0-0.1,0.1-0.1,0.2l-0.7,1.9c-0.1,0.2-0.1,0.4-0.1,0.6l0.1,8.5c0,0.1,0.1,0.3,0.2,0.4
		s0.2,0.1,0.4,0.1l1.3,0c0.1,0,0.3-0.1,0.4-0.2c0.1-0.1,0.1-0.2,0.1-0.4l-0.1-8.7c0-0.2-0.1-0.4-0.1-0.6l-0.7-1.7
		c-0.1-0.2-0.2-0.2-0.3-0.2C104.5,48.2,104.4,48.3,104.3,48.3z M104,51L104,51l1.3,0l0.1,7.4l-1.3,0L104,51z M105.4,59.5l-1.3,0
		l0-0.6l1.3,0L105.4,59.5z M105.2,50.4C105.2,50.4,105.2,50.4,105.2,50.4l-1.1,0.1l0.5-1.4L105.2,50.4z"/>
</g>
<g>
	<path fill="#4D4D4D" d="M94.5,48.3c0,0-0.1,0.1-0.1,0.2l-0.7,1.9c-0.1,0.2-0.1,0.4-0.1,0.6l0.1,8.5c0,0.1,0.1,0.3,0.2,0.4
		s0.2,0.1,0.4,0.1l1.3,0c0.1,0,0.3-0.1,0.4-0.2c0.1-0.1,0.1-0.2,0.1-0.4l-0.1-8.7c0-0.2-0.1-0.4-0.1-0.6l-0.7-1.7
		c-0.1-0.2-0.2-0.2-0.3-0.2C94.7,48.2,94.6,48.3,94.5,48.3z M94.1,51L94.1,51l1.3,0l0.1,7.4l-1.3,0L94.1,51z M95.6,59.5l-1.3,0
		l0-0.6l1.3,0L95.6,59.5z M95.3,50.4C95.3,50.4,95.3,50.4,95.3,50.4l-1.1,0.1l0.5-1.4L95.3,50.4z"/>
</g>
</svg>
