<?xml version="1.0" encoding="utf-8"?>
<!-- Generator: Adobe Illustrator 18.0.0, SVG Export Plug-In . SVG Version: 6.00 Build 0)  -->
<!DOCTYPE svg PUBLIC "-//W3C//DTD SVG 1.1//EN" "http://www.w3.org/Graphics/SVG/1.1/DTD/svg11.dtd">
<svg version="1.1" id="Layer_1" xmlns="http://www.w3.org/2000/svg" xmlns:xlink="http://www.w3.org/1999/xlink" x="0px" y="0px"
	 viewBox="-64.5 -26.5 229 153" enable-background="new -64.5 -26.5 229 153" xml:space="preserve">
<g opacity="0.5">
	<path fill="#B3B3B3" d="M49.3,115.9c-29.9,0-59.7,0-89.5,0c-1.9,0-3.7-0.2-5.7-0.7c-2.9-0.6-5.7-1.2-8.5-2.1
		c-0.6-0.2-1.1-0.4-1.7-0.4c-0.2,0-0.4-0.1-0.5-0.4c-0.1-0.2-0.1-0.4-0.1-0.6c0-1.4,0-2.9,0-4.3c0-0.1,0-0.3,0.1-0.4
		c0.1-0.4,0.2-0.4,0.6-0.5c0.2,0,0.4,0,0.6,0c8.2,0,16.5,0,24.7,0c1,0,0.9,0,0.9-0.9c0-32.5,0-65.1,0-97.6c0-2.3,0.9-4.1,2.6-5.3
		c1-0.8,2.3-1.1,3.6-1.1c0.1,0,0.2,0,0.4,0c48.3,0,96.7,0,145.1,0c1.2,0,2.4,0.2,3.4,0.8c1.8,1.1,2.9,2.7,3.1,4.9
		c0.1,0.7,0.1,1.3,0.1,2c0,31.9,0,63.8,0,95.7c0,0.4,0,0.8-0.1,1.2c0,0.4,0.1,0.4,0.4,0.4c0.2,0,0.4,0,0.5,0c8.2,0,16.5,0,24.7,0
		c1,0,1.1,0.2,1,1c0,1.4,0,2.7,0,4.1c0,0.1,0,0.2,0,0.4c-0.1,0.4-0.2,0.6-0.6,0.6c-0.5,0-0.9,0.1-1.4,0.3c-2.7,0.9-5.5,1.5-8.3,2.1
		c-1.3,0.2-2.6,0.5-3.9,0.7c-0.4,0.1-0.8,0.1-1.2,0.1c-1.7,0-3.3,0-5,0C106.3,115.9,77.8,115.9,49.3,115.9z M49.2,106.6
		c25.9,0,51.7,0,77.7,0c0.2,0,0.4,0,0.6,0c0.4,0,0.5-0.1,0.5-0.5c0-0.2,0-0.4,0-0.7c0-25.8,0-51.5,0-77.2c0-6.8,0-13.6,0-20.4
		c0-2.3-1.1-3.9-3.1-5c-0.9-0.5-1.8-0.7-2.8-0.7c-35.8,0-71.6,0-107.3,0c-12.8,0-25.6,0-38.5,0c-2.2,0-3.9,1.1-5,3
		c-0.5,0.9-0.7,2-0.7,3c0,32.4,0,65,0,97.4c0,0.1,0,0.2,0,0.4c0,0.1,0,0.1,0,0.2c0,0.2,0.1,0.4,0.4,0.4c0.2,0,0.4,0,0.7,0
		C-2.5,106.6,23.4,106.6,49.2,106.6z M49.3,112.4c34.8,0,69.5,0,104.3,0c0.2,0,0.4,0,0.6,0c0.4,0,0.4-0.1,0.4-0.4c0-0.3,0-0.6,0-0.9
		c0-1.1,0-2.3,0-3.4c0-0.5-0.1-0.5-0.5-0.6c-0.2,0-0.4,0-0.5,0c-69.5,0-139.2,0-208.7,0c-0.2,0-0.4,0-0.5,0c-0.5,0-0.5,0.1-0.5,0.5
		c0,1.2,0,2.5,0,3.7c0,1.1-0.2,1,1,1C-20.3,112.4,14.5,112.4,49.3,112.4z M-53.1,113c0.2,0.1,0.4,0.1,0.6,0.2
		c2.4,0.7,4.8,1.2,7.3,1.7c1.8,0.4,3.6,0.6,5.5,0.6c49.3,0,98.5,0,147.8,0c10.5,0,21,0,31.5,0c0.6,0,1.2-0.1,1.8-0.1
		c1.5-0.2,3.1-0.5,4.7-0.9c1.7-0.4,3.3-0.8,5-1.2c0.2-0.1,0.4-0.1,0.5-0.2c0-0.1,0-0.1-0.1-0.1c-0.2,0-0.3-0.1-0.5-0.1
		C136.8,112.7-52.6,112.8-53.1,113z"/>
	<path fill="#B3B3B3" d="M49.3,8.6c24.1,0,48.3,0,72.4,0c0.9,0,0.8-0.1,0.8,0.9c0,29.9,0,59.8,0,89.7c0,0.9,0.1,0.9-0.9,0.9
		c-48.2,0-96.5,0-144.7,0c-0.2,0-0.3,0-0.5,0c-0.4,0-0.4-0.1-0.4-0.4c0-0.1,0-0.2,0-0.4c0-29.9,0-59.9,0-89.8c0-0.9-0.1-0.8,0.8-0.8
		C1.1,8.6,25.2,8.6,49.3,8.6z M122,9.1c-0.4,0-0.6,0-0.8,0c-48,0-95.9,0-143.8,0c-0.8,0-0.9-0.2-0.9,0.9c0,29.6,0,59.2,0,88.7
		c0,0.9,0,0.9,0.8,0.9c47.9,0,95.8,0,143.8,0c0.2,0,0.3,0,0.5,0c0.2,0,0.4-0.1,0.4-0.4c0-0.2,0-0.4,0-0.6c0-22.7,0-45.4,0-68.1
		c0-6.9,0-13.8,0-20.7C122,9.7,122,9.4,122,9.1z"/>
</g>
<path fill="none" stroke="#B3B3B3" stroke-miterlimit="10" d="M131.1,14.4"/>
<path fill="none" stroke="#B3B3B3" stroke-miterlimit="10" d="M-32.6,14.4"/>
<path fill="none" stroke="#B3B3B3" stroke-miterlimit="10" d="M131.1,79"/>
<path fill="none" stroke="#B3B3B3" stroke-miterlimit="10" d="M-32.6,79"/>
<g>
	<path fill="none" stroke="#535454" stroke-width="0.25" stroke-miterlimit="10" d="M62,73.3c0-4.7-3.8-8.5-8.5-8.5
		c-4.7,0-8.6,3.8-8.6,8.5c0,4.7,3.8,8.6,8.5,8.6C58.1,81.9,62,78,62,73.3z M74.1,73.3c2.5-4.3,5-8.6,7.5-12.9
		c-1.3-0.7-2.5-1.4-3.7-2.1c-2.5,4.3-5,8.6-7.5,12.9C71.7,71.8,72.9,72.5,74.1,73.3z M25.4,59.9c2.5,4.3,5,8.6,7.5,12.9
		c1.3-0.7,2.5-1.4,3.7-2.1c-2.5-4.3-5-8.6-7.5-12.9C27.9,58.5,26.7,59.2,25.4,59.9z"/>
	<path fill="none" stroke="#535454" stroke-width="0.25" stroke-miterlimit="10" d="M53.4,35.6c-2.9,0-5.9,0-8.8,0
		c-3.3,0-5.5,2.4-5.2,5.7c0.3,3.6,0.6,7.2,0.8,10.8c0.3,3.6,2.9,6.2,6.5,6.2c4.2,0,8.4,0,12.6,0c3.6,0,6.4-2.7,6.7-6.2
		c0.3-3.1,0.7-6.3,1-9.4c0.1-1.1,0.3-2.2,0.1-3.3c-0.4-2.4-2.4-3.9-5-3.9C59.2,35.6,56.3,35.6,53.4,35.6z"/>
</g>
<g>
	<path fill="none" stroke="#0071BC" stroke-width="0.25" stroke-miterlimit="10" d="M21.4,59.1c2.9-1.7,5.7-3.3,8.6-5
		c0.7,1.2,1.4,2.3,2.1,3.5c0.7-0.4,1.3-0.8,1.9-1.1c-0.4-1.5-0.8-2.8-1.1-4.3c-0.6-3.6-1.4-7.3-1.2-11c0.5-8.1,4.4-13.9,11.8-17.3
		c2.6-1.2,5.4-1.6,8.3-1.6c2.5,0,4.9,0,7.4,0.4c8.1,1.6,14.2,8.2,15.4,16.3c0.3,2.2,0.3,4.4-0.1,6.7c-0.4,2.5-0.7,5-1.2,7.5
		c-0.2,1.1-0.6,2.2-1,3.4c0.8,0.4,1.5,0.9,2.3,1.3c0.7-1.2,1.3-2.3,2-3.5c2.9,1.7,5.7,3.3,8.6,5c-3.4,6-6.9,11.9-10.3,17.9
		c-2.9-1.7-5.7-3.3-8.6-5c0.7-1.3,1.5-2.6,2.2-3.9c-0.9-0.5-1.8-1-2.7-1.6c-0.8,0.7-1.5,1.3-2.2,2c2.5,5.9-0.2,11.3-3.7,13.8
		c-4,2.9-9.3,2.9-13.3,0.2c-3.6-2.5-6.4-7.8-4-13.9c-0.8-0.7-1.6-1.4-2.4-2.2c-0.7,0.4-1.5,0.8-2.2,1.3c0.7,1.3,1.5,2.5,2.2,3.8
		c-2.9,1.7-5.7,3.3-8.6,5C28.2,71,24.8,65.1,21.4,59.1z"/>
</g>
</svg>
