<?xml version="1.0" encoding="utf-8"?>
<!-- Generator: Adobe Illustrator 18.0.0, SVG Export Plug-In . SVG Version: 6.00 Build 0)  -->
<!DOCTYPE svg PUBLIC "-//W3C//DTD SVG 1.1//EN" "http://www.w3.org/Graphics/SVG/1.1/DTD/svg11.dtd">
<svg version="1.1" id="Layer_1" xmlns="http://www.w3.org/2000/svg" xmlns:xlink="http://www.w3.org/1999/xlink" x="0px" y="0px"
	 viewBox="-0.9 0 1281.8 743.9" enable-background="new -0.9 0 1281.8 743.9" xml:space="preserve">
<g opacity="0.5">
	<path fill="#B3B3B3" d="M645.7,693.7c-171.8,0-343.2,0-515,0c-10.9,0-21.5-1.4-32.5-3.9c-16.6-3.2-32.8-7.1-49-12.3
		c-3.2-1.1-6.3-2.5-9.9-2.1c-1.4,0-2.5-0.7-2.8-2.1c-0.4-1.1-0.4-2.1-0.4-3.2c0-8.1,0-16.6,0-24.7c0-0.7,0-1.8,0.4-2.5
		c0.4-2.1,1.4-2.5,3.2-2.8c1.1,0,2.1,0,3.2,0c47.3,0,94.9,0,142.2,0c5.6,0,4.9,0,4.9-4.9c0-187,0-374.3,0-561.2
		c0-13.1,4.9-23.3,15.2-30.7c6-4.6,13.1-6.3,20.5-6.3c0.7,0,1.4,0,2.1,0c278,0,556.3,0,834.6,0c7.1,0,13.8,1.1,19.8,4.6
		c10.6,6.3,16.9,15.5,18,27.9c0.4,3.9,0.4,7.4,0.4,11.3c0,183.4,0,366.9,0,550.3c0,2.1,0,4.6-0.4,6.7c0,2.1,0.4,2.5,2.5,2.5
		c1.1,0,2.1,0,2.8,0c47.3,0,94.9,0,142.2,0c5.6,0,6.3,1.1,6,6c0,8.1,0,15.5,0,23.6c0,0.7,0,1.4,0,2.1c-0.4,2.1-1.4,3.2-3.2,3.2
		c-2.8,0-5.3,0.7-7.8,1.8c-15.5,5.3-31.7,8.8-48,12.3c-7.4,1.4-15.2,2.8-22.6,3.9c-2.1,0.4-4.6,0.4-7.1,0.4c-9.5,0-19,0-28.6,0
		C973.8,693.7,809.8,693.7,645.7,693.7z M645.4,640c148.9,0,297.4,0,446.6,0c1.1,0,2.1,0,3.2,0c2.5,0,2.8-0.4,2.8-2.8
		c0-1.4,0-2.5,0-3.9c0-148.2,0-296,0-444.1c0-39.2,0-78.3,0-117.5c0-13.1-6.3-22.6-17.6-28.9c-4.9-2.8-10.6-3.9-15.9-3.9
		c-205.7,0-411.7,0-617.3,0c-73.7,0-147.5,0-221.2,0c-12.7,0-22.2,6.3-28.6,17.3c-2.8,5.3-3.9,11.3-3.9,17.3
		c0,186.6,0,373.6,0,560.2c0,0.7,0,1.4,0,2.1c0,0.4,0,0.7,0,1.4c0,1.4,0.7,2.1,2.5,2.1c1.4,0,2.5,0,3.9,0
		C348,640,496.9,640,645.4,640z M645.7,673.2c200,0,400,0,600,0c1.4,0,2.1,0,3.5,0c2.1,0,2.5-0.4,2.5-2.5c0-1.8,0-3.5,0-5.3
		c0-6.3,0-13.1,0-19.4c0-2.8-0.4-2.8-2.8-3.2c-1.1,0-2.1,0-2.8,0c-400,0-800.4,0-1200.4,0c-1.1,0-2.1,0-2.8,0
		c-2.8,0-2.8,0.4-2.8,2.8c0,7.1,0,14.1,0,21.5c0,6.3-1.1,5.6,5.6,5.6C245.7,673.2,445.7,673.2,645.7,673.2z M57.3,677.1
		c1.1,0.4,2.1,0.7,3.2,1.1c13.8,3.9,27.5,7.1,42,9.9c10.6,2.1,20.8,3.2,31.7,3.2c283.3,0,566.5,0,849.8,0c60.3,0,121,0,181.3,0
		c3.5,0,7.1-0.4,10.6-0.7c8.8-1.4,18-2.8,26.8-4.9c9.9-2.1,19-4.6,28.6-7.1c1.1-0.4,2.1-0.7,2.8-1.4c0-0.4,0-0.4-0.4-0.7
		c-1.1,0-1.8-0.4-2.8-0.4C1149.1,675.3,59.8,675.7,57.3,677.1z"/>
	<path fill="#B3B3B3" d="M646.1,76.3c138.6,0,277.6,0,416.3,0c5.3,0,4.6-0.4,4.6,4.9c0,171.8,0,343.9,0,516.1c0,5.3,0.4,4.9-4.9,4.9
		c-277.3,0-554.9,0-832.1,0c-1.1,0-1.8,0-2.8,0c-2.1,0-2.1-0.4-2.1-2.5c0-0.7,0-1.4,0-2.1c0-172.1,0-344.3,0-516.4
		c0-5.3-0.4-4.6,4.6-4.6C368.5,76.3,507.1,76.3,646.1,76.3z M1064.1,79.2c-2.1,0-3.2,0-4.6,0c-275.9,0-551.4,0-827.2,0
		c-4.6,0-4.9-1.1-4.9,4.9c0,170,0,340.4,0,510.4c0,4.9,0,4.9,4.6,4.9c275.5,0,551,0,826.9,0c1.1,0,1.8,0,2.8,0
		c1.4,0,2.1-0.7,2.1-2.1c0-1.1,0-2.1,0-3.2c0-130.5,0-261,0-391.6c0-39.5,0-79.4,0-118.9C1064.1,82.7,1064.1,81.3,1064.1,79.2z"/>
</g>
<path fill="none" stroke="#B3B3B3" stroke-miterlimit="10" d="M1116.5,109.8"/>
<path fill="none" stroke="#B3B3B3" stroke-miterlimit="10" d="M175.2,109.8"/>
<path fill="none" stroke="#B3B3B3" stroke-miterlimit="10" d="M1116.5,481.1"/>
<path fill="none" stroke="#B3B3B3" stroke-miterlimit="10" d="M175.2,481.1"/>
</svg>
