<?xml version="1.0" encoding="utf-8"?>
<!-- Generator: Adobe Illustrator 18.0.0, SVG Export Plug-In . SVG Version: 6.00 Build 0)  -->
<!DOCTYPE svg PUBLIC "-//W3C//DTD SVG 1.1//EN" "http://www.w3.org/Graphics/SVG/1.1/DTD/svg11.dtd">
<svg version="1.1" id="Layer_1" xmlns="http://www.w3.org/2000/svg" xmlns:xlink="http://www.w3.org/1999/xlink" x="0px" y="0px"
	 viewBox="0 0 100 100" enable-background="new 0 0 100 100" xml:space="preserve">
<g opacity="0.5">
	<path fill="#B3B3B3" d="M49.5,75.1c-13.4,0-26.8,0-40.2,0c-0.9,0-1.7-0.1-2.5-0.3c-1.3-0.2-2.6-0.6-3.8-1c-0.2-0.1-0.5-0.2-0.8-0.2
		c-0.1,0-0.2-0.1-0.2-0.2c0-0.1,0-0.2,0-0.2c0-0.6,0-1.3,0-1.9c0-0.1,0-0.1,0-0.2c0-0.2,0.1-0.2,0.2-0.2c0.1,0,0.2,0,0.2,0
		c3.7,0,7.4,0,11.1,0c0.4,0,0.4,0,0.4-0.4c0-14.6,0-29.2,0-43.8c0-1,0.4-1.8,1.2-2.4c0.5-0.4,1-0.5,1.6-0.5c0.1,0,0.1,0,0.2,0
		c21.7,0,43.4,0,65.1,0c0.6,0,1.1,0.1,1.5,0.4c0.8,0.5,1.3,1.2,1.4,2.2c0,0.3,0,0.6,0,0.9c0,14.3,0,28.6,0,42.9c0,0.2,0,0.4,0,0.5
		c0,0.2,0,0.2,0.2,0.2c0.1,0,0.2,0,0.2,0c3.7,0,7.4,0,11.1,0c0.4,0,0.5,0.1,0.5,0.5c0,0.6,0,1.2,0,1.8c0,0.1,0,0.1,0,0.2
		c0,0.2-0.1,0.2-0.2,0.2c-0.2,0-0.4,0.1-0.6,0.1c-1.2,0.4-2.5,0.7-3.7,1c-0.6,0.1-1.2,0.2-1.8,0.3c-0.2,0-0.4,0-0.6,0
		c-0.7,0-1.5,0-2.2,0C75.1,75.1,62.3,75.1,49.5,75.1z M49.5,70.9c11.6,0,23.2,0,34.8,0c0.1,0,0.2,0,0.2,0c0.2,0,0.2,0,0.2-0.2
		c0-0.1,0-0.2,0-0.3c0-11.6,0-23.1,0-34.6c0-3.1,0-6.1,0-9.2c0-1-0.5-1.8-1.4-2.3c-0.4-0.2-0.8-0.3-1.2-0.3c-16,0-32.1,0-48.2,0
		c-5.7,0-11.5,0-17.3,0c-1,0-1.7,0.5-2.2,1.3c-0.2,0.4-0.3,0.9-0.3,1.3c0,14.6,0,29.1,0,43.7c0,0.1,0,0.1,0,0.2c0,0,0,0.1,0,0.1
		c0,0.1,0.1,0.2,0.2,0.2c0.1,0,0.2,0,0.3,0C26.3,70.9,37.9,70.9,49.5,70.9z M49.5,73.5c15.6,0,31.2,0,46.8,0c0.1,0,0.2,0,0.3,0
		c0.2,0,0.2,0,0.2-0.2c0-0.1,0-0.3,0-0.4c0-0.5,0-1,0-1.5c0-0.2,0-0.2-0.2-0.2c-0.1,0-0.2,0-0.2,0c-31.2,0-62.4,0-93.6,0
		c-0.1,0-0.2,0-0.2,0c-0.2,0-0.2,0-0.2,0.2c0,0.6,0,1.1,0,1.7c0,0.5-0.1,0.4,0.4,0.4C18.3,73.5,33.9,73.5,49.5,73.5z M3.6,73.8
		c0.1,0,0.2,0.1,0.2,0.1C5,74.2,6,74.4,7.2,74.7c0.8,0.2,1.6,0.2,2.5,0.2c22.1,0,44.2,0,66.3,0c4.7,0,9.4,0,14.1,0
		c0.3,0,0.6,0,0.8-0.1c0.7-0.1,1.4-0.2,2.1-0.4c0.8-0.2,1.5-0.4,2.2-0.6c0.1,0,0.2-0.1,0.2-0.1c0,0,0,0,0-0.1c-0.1,0-0.1,0-0.2,0
		C88.8,73.7,3.8,73.7,3.6,73.8z"/>
	<path fill="#B3B3B3" d="M49.6,26.9c10.8,0,21.7,0,32.5,0c0.4,0,0.4,0,0.4,0.4c0,13.4,0,26.8,0,40.3c0,0.4,0,0.4-0.4,0.4
		c-21.6,0-43.3,0-64.9,0c-0.1,0-0.1,0-0.2,0c-0.2,0-0.2,0-0.2-0.2c0-0.1,0-0.1,0-0.2c0-13.4,0-26.9,0-40.3c0-0.4,0-0.4,0.4-0.4
		C27.9,26.9,38.7,26.9,49.6,26.9z M82.2,27.2c-0.2,0-0.2,0-0.4,0c-21.5,0-43,0-64.5,0c-0.4,0-0.4-0.1-0.4,0.4c0,13.3,0,26.6,0,39.8
		c0,0.4,0,0.4,0.4,0.4c21.5,0,43,0,64.5,0c0.1,0,0.1,0,0.2,0c0.1,0,0.2-0.1,0.2-0.2c0-0.1,0-0.2,0-0.2c0-10.2,0-20.4,0-30.6
		c0-3.1,0-6.2,0-9.3C82.2,27.4,82.2,27.3,82.2,27.2z"/>
</g>
<path fill="none" stroke="#B3B3B3" stroke-miterlimit="10" d="M86.3,29.5"/>
<path fill="none" stroke="#B3B3B3" stroke-miterlimit="10" d="M12.8,29.5"/>
<path fill="none" stroke="#B3B3B3" stroke-miterlimit="10" d="M86.3,58.5"/>
<path fill="none" stroke="#B3B3B3" stroke-miterlimit="10" d="M12.8,58.5"/>
<g>
	<path fill="none" stroke="#535454" stroke-width="0.25" stroke-miterlimit="10" d="M55.2,56c0-2.1-1.7-3.8-3.8-3.8
		c-2.1,0-3.8,1.7-3.8,3.8c0,2.1,1.7,3.8,3.8,3.8C53.5,59.8,55.2,58.1,55.2,56z M60.7,56c1.1-1.9,2.2-3.9,3.4-5.8
		c-0.6-0.3-1.1-0.6-1.7-1c-1.1,1.9-2.2,3.9-3.4,5.8C59.6,55.3,60.1,55.6,60.7,56z M38.9,50c1.1,1.9,2.2,3.9,3.4,5.8
		c0.6-0.3,1.1-0.6,1.7-1c-1.1-1.9-2.2-3.9-3.4-5.8C39.9,49.3,39.4,49.7,38.9,50z"/>
	<path fill="none" stroke="#535454" stroke-width="0.25" stroke-miterlimit="10" d="M51.4,39.1c-1.3,0-2.6,0-3.9,0
		c-1.5,0-2.5,1.1-2.3,2.6c0.1,1.6,0.3,3.2,0.4,4.9c0.1,1.6,1.3,2.8,2.9,2.8c1.9,0,3.8,0,5.7,0c1.6,0,2.9-1.2,3-2.8
		c0.1-1.4,0.3-2.8,0.4-4.2c0-0.5,0.1-1,0-1.5c-0.2-1.1-1.1-1.8-2.2-1.8C54,39,52.7,39.1,51.4,39.1z"/>
</g>
<g>
	<path fill="none" stroke="#0071BC" stroke-width="0.25" stroke-miterlimit="10" d="M37,49.6c1.3-0.7,2.6-1.5,3.9-2.2
		c0.3,0.5,0.6,1,0.9,1.6c0.3-0.2,0.6-0.3,0.9-0.5c-0.2-0.7-0.4-1.3-0.5-1.9c-0.3-1.6-0.6-3.3-0.5-4.9c0.2-3.6,2-6.2,5.3-7.7
		c1.2-0.5,2.4-0.7,3.7-0.7c1.1,0,2.2,0,3.3,0.2c3.6,0.7,6.4,3.7,6.9,7.3c0.1,1,0.1,2,0,3c-0.2,1.1-0.3,2.2-0.5,3.4
		c-0.1,0.5-0.3,1-0.4,1.5c0.3,0.2,0.7,0.4,1,0.6c0.3-0.5,0.6-1,0.9-1.6c1.3,0.7,2.6,1.5,3.9,2.2c-1.5,2.7-3.1,5.3-4.6,8
		c-1.3-0.7-2.6-1.5-3.9-2.2c0.3-0.6,0.7-1.2,1-1.8c-0.4-0.2-0.8-0.5-1.2-0.7c-0.3,0.3-0.7,0.6-1,0.9c1.1,2.7-0.1,5.1-1.7,6.2
		c-1.8,1.3-4.2,1.3-5.9,0.1c-1.6-1.1-2.9-3.5-1.8-6.2c-0.4-0.3-0.7-0.6-1.1-1c-0.3,0.2-0.7,0.4-1,0.6c0.3,0.6,0.7,1.1,1,1.7
		c-1.3,0.7-2.6,1.5-3.9,2.2C40.1,54.9,38.6,52.3,37,49.6z"/>
</g>
</svg>
