<?xml version="1.0" encoding="utf-8"?>
<!-- Generator: Adobe Illustrator 16.0.0, SVG Export Plug-In . SVG Version: 6.00 Build 0)  -->
<!DOCTYPE svg PUBLIC "-//W3C//DTD SVG 1.1//EN" "http://www.w3.org/Graphics/SVG/1.1/DTD/svg11.dtd">
<svg version="1.1" id="Layer_1" xmlns="http://www.w3.org/2000/svg" xmlns:xlink="http://www.w3.org/1999/xlink" x="0px" y="0px"
	 width="510px" height="109px" viewBox="0 0 510 109" enable-background="new 0 0 510 109" xml:space="preserve">
<g>
	<path fill="#BCBEC0" d="M148.86,92.949c0,0-0.035-1.249-0.097-3.436c-0.044-2.187-0.108-5.311-0.184-9.059
		c-0.041-3.748-0.133-8.121-0.153-12.807c-0.021-4.686-0.043-9.683-0.066-14.681c0.022-4.998,0.045-9.995,0.066-14.681
		c0.017-4.686,0.111-9.058,0.152-12.807c0.044-3.748,0.144-6.872,0.185-9.058c0.062-2.187,0.097-3.436,0.097-3.436
		s0.036,1.25,0.097,3.436c0.041,2.187,0.14,5.31,0.185,9.058c0.041,3.749,0.136,8.121,0.152,12.807
		c0.021,4.686,0.043,9.683,0.066,14.681c-0.023,4.998-0.045,9.995-0.066,14.681c-0.02,4.686-0.112,9.059-0.153,12.807
		c-0.076,3.748-0.14,6.872-0.184,9.059C148.896,91.7,148.86,92.949,148.86,92.949z"/>
</g>
<g>
	<path fill="#6D6E71" d="M183.186,69.303c-2.044,0-3.917-0.425-5.62-1.277c-1.704-0.851-3.179-1.986-4.429-3.406
		c-1.248-1.419-2.214-3.036-2.895-4.854c-0.68-1.815-1.021-3.689-1.021-5.62c0-2.006,0.331-3.935,0.994-5.791
		c0.661-1.853,1.598-3.49,2.809-4.909c1.211-1.42,2.659-2.546,4.343-3.378s3.527-1.249,5.535-1.249c2.573,0,4.816,0.672,6.727,2.015
		c1.91,1.344,3.548,2.981,4.91,4.911v-6.416h2.555v30.087c0,2.006-0.378,3.766-1.136,5.279s-1.769,2.772-3.037,3.775
		c-1.269,1.003-2.744,1.76-4.427,2.271c-1.685,0.511-3.455,0.766-5.308,0.766c-1.703,0-3.236-0.162-4.598-0.482
		c-1.363-0.323-2.565-0.775-3.605-1.362c-1.042-0.587-1.968-1.306-2.781-2.157c-0.815-0.852-1.524-1.789-2.128-2.811l1.929-1.306
		c1.173,2.007,2.762,3.473,4.769,4.4c2.006,0.927,4.144,1.39,6.415,1.39c1.513,0,2.942-0.208,4.286-0.624
		c1.342-0.416,2.516-1.03,3.519-1.846c1.003-0.813,1.797-1.825,2.385-3.037c0.586-1.211,0.88-2.63,0.88-4.257v-6.471
		c-1.211,1.892-2.82,3.425-4.825,4.598C187.423,68.716,185.343,69.303,183.186,69.303z M183.866,66.862
		c1.249,0,2.46-0.236,3.634-0.71c1.172-0.473,2.242-1.087,3.207-1.845c0.965-0.757,1.769-1.609,2.413-2.555
		c0.644-0.945,1.022-1.892,1.136-2.839v-9.707c-0.455-1.135-1.06-2.186-1.817-3.151c-0.758-0.965-1.618-1.789-2.583-2.469
		c-0.965-0.681-2.007-1.221-3.123-1.619c-1.116-0.397-2.243-0.596-3.378-0.596c-1.778,0-3.369,0.379-4.768,1.136
		c-1.401,0.758-2.583,1.741-3.548,2.953c-0.965,1.211-1.705,2.583-2.215,4.115c-0.511,1.533-0.765,3.075-0.765,4.626
		c0,1.703,0.302,3.312,0.908,4.826c0.605,1.514,1.447,2.858,2.525,4.03c1.078,1.173,2.327,2.1,3.747,2.781
		C180.659,66.521,182.201,66.862,183.866,66.862z"/>
	<path fill="#6D6E71" d="M215.996,69.416c-2.082,0-4.002-0.406-5.762-1.221c-1.76-0.812-3.284-1.921-4.57-3.32
		c-1.288-1.4-2.292-3.027-3.009-4.882c-0.72-1.854-1.078-3.804-1.078-5.848c0-2.081,0.369-4.049,1.107-5.905
		c0.737-1.853,1.759-3.48,3.064-4.882c1.306-1.398,2.829-2.506,4.57-3.32c1.741-0.812,3.633-1.22,5.677-1.22
		c2.043,0,3.945,0.407,5.705,1.22c1.76,0.814,3.292,1.922,4.6,3.32c1.306,1.402,2.326,3.029,3.064,4.882
		c0.738,1.855,1.107,3.824,1.107,5.905c0,2.044-0.369,3.994-1.107,5.848c-0.738,1.854-1.75,3.481-3.037,4.882
		c-1.287,1.399-2.82,2.508-4.598,3.32C219.95,69.01,218.04,69.416,215.996,69.416z M204.472,54.259c0,1.741,0.302,3.378,0.908,4.911
		c0.605,1.532,1.429,2.866,2.47,4.001c1.041,1.137,2.261,2.036,3.661,2.697c1.4,0.663,2.896,0.994,4.485,0.994
		s3.084-0.331,4.485-0.994c1.4-0.661,2.621-1.579,3.661-2.753c1.041-1.173,1.873-2.526,2.498-4.059
		c0.625-1.533,0.937-3.188,0.937-4.967c0-1.74-0.312-3.378-0.937-4.911c-0.625-1.533-1.458-2.875-2.498-4.03
		c-1.041-1.154-2.261-2.072-3.661-2.753c-1.401-0.681-2.896-1.022-4.485-1.022c-1.553,0-3.028,0.341-4.427,1.022
		c-1.402,0.681-2.631,1.609-3.691,2.782c-1.06,1.173-1.893,2.545-2.498,4.116C204.774,50.863,204.472,52.519,204.472,54.259z"/>
	<path fill="#6D6E71" d="M235.07,27.409h2.895v35.592c0,1.099,0.313,1.969,0.937,2.611c0.625,0.645,1.485,0.966,2.583,0.966
		c0.415,0,0.918-0.047,1.504-0.142c0.586-0.094,1.125-0.237,1.618-0.427l0.568,2.271c-0.643,0.266-1.438,0.482-2.384,0.653
		c-0.947,0.169-1.76,0.254-2.441,0.254c-1.589,0-2.867-0.482-3.833-1.446c-0.965-0.966-1.447-2.262-1.447-3.89V27.409z"/>
	<path fill="#6D6E71" d="M246.934,27.409h2.895v35.592c0,1.099,0.313,1.969,0.937,2.611c0.625,0.645,1.485,0.966,2.583,0.966
		c0.416,0,0.918-0.047,1.505-0.142c0.586-0.094,1.125-0.237,1.618-0.427l0.568,2.271c-0.645,0.266-1.44,0.482-2.384,0.653
		c-0.947,0.169-1.76,0.254-2.441,0.254c-1.589,0-2.867-0.482-3.832-1.446c-0.966-0.966-1.448-2.262-1.448-3.89V27.409z"/>
	<path fill="#6D6E71" d="M282.754,68.849h-2.838V52.386c0-3.822-0.539-6.604-1.618-8.345c-1.079-1.741-2.81-2.611-5.194-2.611
		c-1.249,0-2.489,0.227-3.718,0.681c-1.23,0.454-2.366,1.098-3.406,1.93c-1.042,0.833-1.959,1.808-2.754,2.923
		c-0.794,1.117-1.381,2.319-1.76,3.604v18.28h-2.838v-29.52h2.611v7.04c0.605-1.136,1.362-2.167,2.271-3.095
		c0.907-0.926,1.91-1.721,3.008-2.384c1.098-0.661,2.28-1.172,3.549-1.532c1.267-0.36,2.562-0.54,3.889-0.54
		c3.216,0,5.486,1.125,6.811,3.378c1.325,2.251,1.987,5.478,1.987,9.678V68.849z"/>
	<path fill="#6D6E71" d="M301.487,69.416c-2.082,0-4.013-0.406-5.79-1.221c-1.78-0.812-3.321-1.93-4.628-3.35
		c-1.305-1.419-2.326-3.056-3.064-4.91c-0.737-1.853-1.107-3.841-1.107-5.96c0-2.081,0.37-4.039,1.107-5.875
		c0.738-1.835,1.75-3.444,3.037-4.826c1.286-1.38,2.818-2.469,4.598-3.264c1.779-0.795,3.69-1.191,5.733-1.191
		c2.081,0,4.002,0.407,5.763,1.22c1.759,0.814,3.282,1.912,4.57,3.294c1.285,1.381,2.299,2.989,3.037,4.824
		c0.738,1.836,1.106,3.775,1.106,5.819c0,0.189-0.01,0.426-0.029,0.709c-0.019,0.284-0.028,0.464-0.028,0.54H289.85
		c0.114,1.703,0.511,3.283,1.192,4.74c0.681,1.456,1.541,2.715,2.583,3.774c1.04,1.062,2.242,1.894,3.605,2.499
		c1.361,0.604,2.817,0.907,4.37,0.907c1.021,0,2.035-0.143,3.037-0.426s1.931-0.671,2.781-1.164c0.853-0.49,1.609-1.087,2.271-1.788
		c0.663-0.699,1.183-1.466,1.561-2.298l2.499,0.681c-0.454,1.06-1.089,2.034-1.901,2.923c-0.814,0.891-1.76,1.657-2.839,2.301
		c-1.078,0.644-2.262,1.145-3.548,1.504C304.173,69.237,302.85,69.416,301.487,69.416z M313.067,52.954
		c-0.113-1.74-0.501-3.33-1.163-4.769c-0.662-1.438-1.515-2.676-2.555-3.718c-1.042-1.042-2.242-1.854-3.604-2.441
		c-1.363-0.586-2.821-0.88-4.373-0.88c-1.551,0-3.008,0.293-4.37,0.88c-1.363,0.587-2.565,1.4-3.605,2.441
		c-1.042,1.042-1.874,2.29-2.497,3.746c-0.626,1.458-0.993,3.038-1.107,4.74H313.067z"/>
	<path fill="#6D6E71" d="M333.731,41.884c-2.688,0.077-5.016,0.861-6.983,2.356s-3.349,3.548-4.144,6.159v18.449h-2.838v-29.52
		h2.668v7.267c1.021-2.081,2.374-3.774,4.06-5.08c1.683-1.307,3.49-2.054,5.42-2.242c0.379,0,0.719-0.01,1.022-0.029
		c0.303-0.018,0.567-0.029,0.795-0.029V41.884z"/>
	<path fill="#6D6E71" d="M360.354,69.416c-2.043,0-3.937-0.425-5.677-1.277c-1.74-0.851-3.244-1.986-4.513-3.405
		s-2.251-3.046-2.952-4.883c-0.7-1.834-1.05-3.736-1.05-5.705c0-2.043,0.341-3.993,1.022-5.846c0.681-1.854,1.626-3.482,2.838-4.883
		c1.211-1.4,2.64-2.517,4.286-3.349s3.453-1.249,5.422-1.249c1.286,0,2.506,0.189,3.661,0.568c1.153,0.378,2.214,0.88,3.178,1.503
		c0.966,0.625,1.846,1.354,2.641,2.186c0.794,0.833,1.477,1.723,2.043,2.668V27.409h2.84v37.466c0,0.947,0.396,1.419,1.191,1.419
		v2.555c-0.189,0.036-0.36,0.057-0.511,0.057c-0.151,0-0.304,0-0.454,0c-0.833,0-1.504-0.265-2.016-0.795
		c-0.51-0.53-0.767-1.116-0.767-1.759v-3.406c-1.211,1.967-2.829,3.539-4.854,4.712C364.658,68.829,362.549,69.416,360.354,69.416z
		 M360.864,66.862c1.022,0,2.12-0.208,3.293-0.624c1.174-0.416,2.271-0.994,3.292-1.732c1.022-0.738,1.884-1.579,2.584-2.526
		c0.699-0.946,1.106-1.968,1.22-3.065v-9.707c-0.416-1.059-1.012-2.072-1.787-3.037c-0.776-0.966-1.657-1.797-2.64-2.499
		c-0.986-0.698-2.044-1.257-3.18-1.674c-1.136-0.416-2.233-0.625-3.293-0.625c-1.703,0-3.244,0.369-4.625,1.107
		c-1.383,0.738-2.575,1.703-3.577,2.896c-1.002,1.191-1.77,2.554-2.299,4.086c-0.53,1.533-0.795,3.114-0.795,4.74
		c0,1.703,0.302,3.312,0.908,4.826c0.605,1.514,1.447,2.858,2.526,4.03c1.078,1.173,2.327,2.1,3.746,2.781
		S359.199,66.862,360.864,66.862z"/>
	<path fill="#6D6E71" d="M393.451,69.416c-2.083,0-4.013-0.406-5.791-1.221c-1.779-0.812-3.322-1.93-4.627-3.35
		c-1.306-1.419-2.328-3.056-3.064-4.91c-0.738-1.853-1.108-3.841-1.108-5.96c0-2.081,0.37-4.039,1.108-5.875
		c0.736-1.835,1.75-3.444,3.036-4.826c1.287-1.38,2.818-2.469,4.599-3.264c1.778-0.795,3.69-1.191,5.733-1.191
		c2.081,0,4.002,0.407,5.762,1.22c1.76,0.814,3.283,1.912,4.569,3.294c1.287,1.381,2.3,2.989,3.038,4.824
		c0.737,1.836,1.106,3.775,1.106,5.819c0,0.189-0.01,0.426-0.028,0.709c-0.02,0.284-0.029,0.464-0.029,0.54h-25.942
		c0.113,1.703,0.511,3.283,1.192,4.74c0.682,1.456,1.542,2.715,2.582,3.774c1.042,1.062,2.243,1.894,3.606,2.499
		c1.361,0.604,2.817,0.907,4.37,0.907c1.022,0,2.034-0.143,3.037-0.426c1.002-0.283,1.931-0.671,2.782-1.164
		c0.852-0.49,1.608-1.087,2.271-1.788c0.661-0.699,1.182-1.466,1.561-2.298l2.499,0.681c-0.455,1.06-1.089,2.034-1.903,2.923
		c-0.813,0.891-1.759,1.657-2.838,2.301c-1.078,0.644-2.262,1.145-3.548,1.504C396.137,69.237,394.812,69.416,393.451,69.416z
		 M405.03,52.954c-0.113-1.74-0.501-3.33-1.163-4.769c-0.662-1.438-1.515-2.676-2.555-3.718c-1.041-1.042-2.242-1.854-3.604-2.441
		c-1.362-0.586-2.82-0.88-4.371-0.88c-1.552,0-3.009,0.293-4.371,0.88c-1.362,0.587-2.565,1.4-3.604,2.441
		c-1.042,1.042-1.874,2.29-2.498,3.746c-0.625,1.458-0.993,3.038-1.107,4.74H405.03z"/>
	<path fill="#6D6E71" d="M421.153,69.416c-2.271,0-4.448-0.379-6.529-1.135c-2.081-0.757-3.898-1.893-5.45-3.406l1.42-1.93
		c1.59,1.438,3.236,2.497,4.938,3.179c1.703,0.68,3.577,1.021,5.621,1.021c2.572,0,4.645-0.539,6.216-1.618
		c1.57-1.079,2.354-2.582,2.354-4.514c0-0.907-0.198-1.674-0.596-2.298c-0.397-0.625-0.993-1.154-1.787-1.59
		c-0.795-0.435-1.78-0.823-2.952-1.164c-1.173-0.341-2.536-0.699-4.088-1.078c-1.666-0.377-3.112-0.756-4.343-1.136
		c-1.229-0.377-2.243-0.833-3.037-1.362c-0.794-0.53-1.391-1.172-1.787-1.93c-0.396-0.756-0.596-1.722-0.596-2.896
		c0-1.475,0.283-2.761,0.851-3.86c0.568-1.097,1.353-2.006,2.355-2.726c1.002-0.719,2.157-1.257,3.463-1.617
		c1.306-0.36,2.696-0.54,4.173-0.54c2.309,0,4.351,0.388,6.131,1.164c1.778,0.775,3.159,1.769,4.144,2.979l-1.589,1.534
		c-0.985-1.137-2.262-1.987-3.831-2.555c-1.571-0.568-3.246-0.851-5.025-0.851c-1.098,0-2.129,0.114-3.093,0.34
		c-0.966,0.227-1.81,0.587-2.526,1.079c-0.72,0.493-1.287,1.126-1.703,1.901c-0.418,0.776-0.624,1.695-0.624,2.754
		c0,0.871,0.141,1.571,0.425,2.1c0.284,0.53,0.738,0.984,1.362,1.362c0.625,0.379,1.43,0.71,2.412,0.995
		c0.984,0.284,2.157,0.595,3.521,0.937c1.854,0.454,3.5,0.89,4.938,1.306c1.438,0.417,2.641,0.927,3.604,1.533
		c0.966,0.604,1.704,1.324,2.215,2.156c0.511,0.833,0.767,1.894,0.767,3.179c0,2.65-1.032,4.76-3.095,6.33
		C427.35,68.632,424.596,69.416,421.153,69.416z"/>
	<path fill="#6D6E71" d="M436.764,68.849v-29.52h2.838v29.52H436.764z"/>
	<path fill="#6D6E71" d="M458.107,69.303c-2.044,0-3.917-0.425-5.619-1.277c-1.704-0.851-3.18-1.986-4.43-3.406
		c-1.248-1.419-2.213-3.036-2.894-4.854c-0.682-1.815-1.022-3.689-1.022-5.62c0-2.006,0.331-3.935,0.993-5.791
		c0.662-1.853,1.599-3.49,2.81-4.909c1.212-1.42,2.66-2.546,4.345-3.378c1.683-0.833,3.527-1.249,5.533-1.249
		c2.574,0,4.816,0.672,6.729,2.015c1.909,1.344,3.547,2.981,4.909,4.911v-6.416h2.556v30.087c0,2.006-0.38,3.766-1.137,5.279
		c-0.758,1.514-1.77,2.772-3.037,3.775c-1.269,1.003-2.744,1.76-4.427,2.271c-1.686,0.511-3.454,0.766-5.309,0.766
		c-1.703,0-3.235-0.162-4.598-0.482c-1.362-0.323-2.565-0.775-3.605-1.362c-1.041-0.587-1.968-1.306-2.781-2.157
		c-0.814-0.852-1.524-1.789-2.128-2.811l1.929-1.306c1.174,2.007,2.763,3.473,4.769,4.4c2.006,0.927,4.145,1.39,6.415,1.39
		c1.514,0,2.942-0.208,4.286-0.624c1.343-0.416,2.516-1.03,3.52-1.846c1.003-0.813,1.797-1.825,2.385-3.037
		c0.586-1.211,0.879-2.63,0.879-4.257v-6.471c-1.211,1.892-2.818,3.425-4.824,4.598C462.345,68.716,460.265,69.303,458.107,69.303z
		 M458.789,66.862c1.248,0,2.46-0.236,3.633-0.71c1.173-0.473,2.242-1.087,3.207-1.845c0.965-0.757,1.769-1.609,2.413-2.555
		c0.644-0.945,1.021-1.892,1.135-2.839v-9.707c-0.454-1.135-1.06-2.186-1.816-3.151c-0.757-0.965-1.617-1.789-2.583-2.469
		c-0.965-0.681-2.006-1.221-3.122-1.619c-1.116-0.397-2.242-0.596-3.378-0.596c-1.778,0-3.369,0.379-4.768,1.136
		c-1.4,0.758-2.584,1.741-3.548,2.953c-0.966,1.211-1.704,2.583-2.215,4.115c-0.512,1.533-0.766,3.075-0.766,4.626
		c0,1.703,0.302,3.312,0.907,4.826c0.606,1.514,1.448,2.858,2.525,4.03c1.08,1.173,2.328,2.1,3.747,2.781
		C455.581,66.521,457.123,66.862,458.789,66.862z"/>
	<path fill="#6D6E71" d="M502.612,68.849h-2.839V52.386c0-3.822-0.539-6.604-1.618-8.345c-1.079-1.741-2.809-2.611-5.193-2.611
		c-1.249,0-2.489,0.227-3.718,0.681c-1.231,0.454-2.367,1.098-3.406,1.93c-1.042,0.833-1.959,1.808-2.753,2.923
		c-0.796,1.117-1.382,2.319-1.76,3.604v18.28h-2.839v-29.52h2.61v7.04c0.606-1.136,1.362-2.167,2.271-3.095
		c0.908-0.926,1.911-1.721,3.008-2.384c1.099-0.661,2.28-1.172,3.549-1.532c1.268-0.36,2.563-0.54,3.889-0.54
		c3.216,0,5.486,1.125,6.812,3.378c1.325,2.251,1.987,5.478,1.987,9.678V68.849z"/>
</g>
<polygon opacity="0.3" fill="#E5793C" points="121.178,53.834 93.769,90.28 66.36,53.834 93.769,17.388 "/>
<polygon opacity="0.3" fill="#1799D6" points="67.226,53.834 39.817,90.28 12.408,53.834 39.817,17.388 "/>
<g>
	<polygon fill="#BCBEC0" stroke="#FFFFFF" stroke-width="1.8505" stroke-miterlimit="10" points="105.153,53.829 95.17,67.107 
		88.591,75.868 67.125,104.403 29.097,53.829 38.368,41.504 38.942,40.745 46.177,31.123 46.529,30.66 67.125,3.264 	"/>
	<g>
		<g>
			<path fill="#FFFFFF" d="M89.118,49.288c-2.872-1.503-7.166-2.167-12.241-2.167c-1.2,0-0.417,0.064-1.832,0.089l-0.553,1.638
				c0.345-0.015,0.113-0.015,0.368-0.015c4.039,0,8.132,0.975,11.307,3.518c3.606,2.926,4.726,6.876,4.726,10.882
				c0,10.035-7.941,15.312-16.231,15.312c-1.137,0-2.822-0.048-4.734-0.855c-0.16-1.574-0.287-7.459-0.304-10.586
				c-1.639,1.951-4.015,3.003-5.335,3.348c-0.032,4.798-0.119,6.668-0.288,7.284c-1.047,0.327-3.325,1.705-4.147,1.747l-0.168,0.99
				c1.039-0.049,10.242-0.096,12.672-0.096c7.036,0,12.394-1.743,16.233-4.51l6.58-8.756c0.719-2.063,1.063-4.236,1.063-6.42
				C96.234,56.404,94.195,51.926,89.118,49.288z"/>
		</g>
		<g>
			<path fill="#FFFFFF" d="M73.677,47.193l-0.352,0.983c-0.383,0.049-2.783,0.919-3.75,1.167v15.385
				c-0.656,1.631-2.863,3.158-5.374,4.421v-5.773c0.017-0.455,0.032-0.975,0.041-1.479c-0.306,0.159-0.848,0.392-1.512,0.392
				c-1.463,0.161-3.334,0.256-4.381,0.256c-2.823,0-7.86-0.286-11.507-2.264c-5.469-2.966-8.635-8.291-8.635-14.175
				c0-1.952,0.264-3.742,0.736-5.366l7.228-9.611c3.655-2.326,7.636-3.062,11.657-3.062c3.734,0,7.636,0.407,9.068,0.967
				c0.177-0.751,1.304-3.181,1.439-4.173l0.992-0.232c-0.255,1.839-0.737,10.171-0.601,14.553l-1.008-0.567
				c-0.08-1.592-1.262-3.926-1.438-5.006c-1.127-1.455-3.246-3.886-10.322-3.886c-7.557,0-12.586,6.068-12.586,13.601
				c0,7.684,6.03,17.528,15.408,17.528c0.832,0,2.439-0.104,3.958-0.576c0,0,0.776-0.184,1.576-0.863
				c0.04-0.408,0.063-1.017,0.088-1.8c0.007-0.735,0.024-1.623,0.024-2.647v-2.502c0-0.591-0.009-1.08-0.024-1.496
				c-0.024-0.624-0.072-1.111-0.152-1.615c-0.872-0.097-3.559-0.984-4.381-1.176l-0.257-0.983c2.246,0.088,5.598,0.137,7.109,0.137
				C68.808,47.33,73.158,47.281,73.677,47.193z"/>
		</g>
	</g>
</g>
</svg>
