<?xml version="1.0" encoding="utf-8"?>
<!-- Generator: Adobe Illustrator 18.0.0, SVG Export Plug-In . SVG Version: 6.00 Build 0)  -->
<!DOCTYPE svg PUBLIC "-//W3C//DTD SVG 1.1//EN" "http://www.w3.org/Graphics/SVG/1.1/DTD/svg11.dtd">
<svg version="1.1" id="Layer_1" xmlns="http://www.w3.org/2000/svg" xmlns:xlink="http://www.w3.org/1999/xlink" x="0px" y="0px"
	 viewBox="0 59.3 196.3 61.3" enable-background="new 0 59.3 196.3 61.3" xml:space="preserve">
<g>
	<path fill="#6D6E71" d="M58.2,97.2c-1.6,0-3-0.3-4.3-1c-1.3-0.7-2.4-1.5-3.4-2.6c-1-1.1-1.7-2.3-2.2-3.7c-0.5-1.4-0.8-2.8-0.8-4.3
		c0-1.5,0.3-3,0.8-4.4c0.5-1.4,1.2-2.7,2.2-3.8c0.9-1.1,2-2,3.3-2.6c1.3-0.6,2.7-1,4.2-1c2,0,3.7,0.5,5.2,1.5c1.5,1,2.7,2.3,3.8,3.8
		v-4.9h2v23c0,1.5-0.3,2.9-0.9,4c-0.6,1.2-1.4,2.1-2.3,2.9c-1,0.8-2.1,1.3-3.4,1.7c-1.3,0.4-2.6,0.6-4.1,0.6c-1.3,0-2.5-0.1-3.5-0.4
		c-1-0.2-2-0.6-2.8-1c-0.8-0.4-1.5-1-2.1-1.7c-0.6-0.7-1.2-1.4-1.6-2.2l1.5-1c0.9,1.5,2.1,2.7,3.7,3.4c1.5,0.7,3.2,1.1,4.9,1.1
		c1.2,0,2.3-0.2,3.3-0.5c1-0.3,1.9-0.8,2.7-1.4c0.8-0.6,1.4-1.4,1.8-2.3c0.4-0.9,0.7-2,0.7-3.3v-5c-0.9,1.4-2.2,2.6-3.7,3.5
		C61.4,96.7,59.8,97.2,58.2,97.2z M58.7,95.3c1,0,1.9-0.2,2.8-0.5c0.9-0.4,1.7-0.8,2.5-1.4c0.7-0.6,1.4-1.2,1.8-2
		c0.5-0.7,0.8-1.4,0.9-2.2v-7.4c-0.3-0.9-0.8-1.7-1.4-2.4c-0.6-0.7-1.2-1.4-2-1.9c-0.7-0.5-1.5-0.9-2.4-1.2
		c-0.9-0.3-1.7-0.5-2.6-0.5c-1.4,0-2.6,0.3-3.7,0.9c-1.1,0.6-2,1.3-2.7,2.3c-0.7,0.9-1.3,2-1.7,3.1c-0.4,1.2-0.6,2.4-0.6,3.5
		c0,1.3,0.2,2.5,0.7,3.7c0.5,1.2,1.1,2.2,1.9,3.1c0.8,0.9,1.8,1.6,2.9,2.1C56.2,95,57.4,95.3,58.7,95.3z"/>
	<path fill="#6D6E71" d="M83.3,97.3c-1.6,0-3.1-0.3-4.4-0.9c-1.3-0.6-2.5-1.5-3.5-2.5c-1-1.1-1.8-2.3-2.3-3.7
		c-0.6-1.4-0.8-2.9-0.8-4.5c0-1.6,0.3-3.1,0.8-4.5c0.6-1.4,1.3-2.7,2.3-3.7c1-1.1,2.2-1.9,3.5-2.5c1.3-0.6,2.8-0.9,4.3-0.9
		c1.6,0,3,0.3,4.4,0.9c1.3,0.6,2.5,1.5,3.5,2.5c1,1.1,1.8,2.3,2.3,3.7c0.6,1.4,0.8,2.9,0.8,4.5c0,1.6-0.3,3.1-0.8,4.5
		c-0.6,1.4-1.3,2.7-2.3,3.7c-1,1.1-2.2,1.9-3.5,2.5C86.3,96.9,84.9,97.3,83.3,97.3z M74.5,85.7c0,1.3,0.2,2.6,0.7,3.8
		c0.5,1.2,1.1,2.2,1.9,3.1c0.8,0.9,1.7,1.6,2.8,2.1c1.1,0.5,2.2,0.8,3.4,0.8c1.2,0,2.4-0.3,3.4-0.8c1.1-0.5,2-1.2,2.8-2.1
		c0.8-0.9,1.4-1.9,1.9-3.1c0.5-1.2,0.7-2.4,0.7-3.8c0-1.3-0.2-2.6-0.7-3.8c-0.5-1.2-1.1-2.2-1.9-3.1c-0.8-0.9-1.7-1.6-2.8-2.1
		c-1.1-0.5-2.2-0.8-3.4-0.8c-1.2,0-2.3,0.3-3.4,0.8c-1.1,0.5-2,1.2-2.8,2.1c-0.8,0.9-1.4,1.9-1.9,3.2C74.7,83.1,74.5,84.3,74.5,85.7
		z"/>
	<path fill="#6D6E71" d="M97.9,65.1h2.2v27.3c0,0.8,0.2,1.5,0.7,2c0.5,0.5,1.1,0.7,2,0.7c0.3,0,0.7,0,1.2-0.1
		c0.4-0.1,0.9-0.2,1.2-0.3l0.4,1.7c-0.5,0.2-1.1,0.4-1.8,0.5c-0.7,0.1-1.3,0.2-1.9,0.2c-1.2,0-2.2-0.4-2.9-1.1
		c-0.7-0.7-1.1-1.7-1.1-3L97.9,65.1L97.9,65.1z"/>
	<path fill="#6D6E71" d="M107,65.1h2.2v27.3c0,0.8,0.2,1.5,0.7,2c0.5,0.5,1.1,0.7,2,0.7c0.3,0,0.7,0,1.2-0.1
		c0.4-0.1,0.9-0.2,1.2-0.3l0.4,1.7c-0.5,0.2-1.1,0.4-1.8,0.5c-0.7,0.1-1.3,0.2-1.9,0.2c-1.2,0-2.2-0.4-2.9-1.1
		c-0.7-0.7-1.1-1.7-1.1-3L107,65.1L107,65.1z"/>
	<path fill="#6D6E71" d="M134.4,96.8h-2.2V84.2c0-2.9-0.4-5.1-1.2-6.4c-0.8-1.3-2.2-2-4-2c-1,0-1.9,0.2-2.8,0.5
		c-0.9,0.3-1.8,0.8-2.6,1.5c-0.8,0.6-1.5,1.4-2.1,2.2c-0.6,0.9-1.1,1.8-1.3,2.8v14h-2.2V74.2h2v5.4c0.5-0.9,1-1.7,1.7-2.4
		c0.7-0.7,1.5-1.3,2.3-1.8s1.7-0.9,2.7-1.2c1-0.3,2-0.4,3-0.4c2.5,0,4.2,0.9,5.2,2.6c1,1.7,1.5,4.2,1.5,7.4L134.4,96.8L134.4,96.8z"
		/>
	<path fill="#6D6E71" d="M148.8,97.3c-1.6,0-3.1-0.3-4.4-0.9c-1.4-0.6-2.5-1.5-3.5-2.6c-1-1.1-1.8-2.3-2.3-3.8
		c-0.6-1.4-0.8-2.9-0.8-4.6c0-1.6,0.3-3.1,0.8-4.5c0.6-1.4,1.3-2.6,2.3-3.7c1-1.1,2.2-1.9,3.5-2.5c1.4-0.6,2.8-0.9,4.4-0.9
		c1.6,0,3.1,0.3,4.4,0.9c1.3,0.6,2.5,1.5,3.5,2.5c1,1.1,1.8,2.3,2.3,3.7c0.6,1.4,0.8,2.9,0.8,4.5c0,0.1,0,0.3,0,0.5
		c0,0.2,0,0.4,0,0.4h-19.9c0.1,1.3,0.4,2.5,0.9,3.6c0.5,1.1,1.2,2.1,2,2.9c0.8,0.8,1.7,1.4,2.8,1.9c1,0.5,2.2,0.7,3.3,0.7
		c0.8,0,1.6-0.1,2.3-0.3c0.8-0.2,1.5-0.5,2.1-0.9c0.7-0.4,1.2-0.8,1.7-1.4c0.5-0.5,0.9-1.1,1.2-1.8l1.9,0.5
		c-0.3,0.8-0.8,1.6-1.5,2.2c-0.6,0.7-1.3,1.3-2.2,1.8c-0.8,0.5-1.7,0.9-2.7,1.2C150.8,97.1,149.8,97.3,148.8,97.3z M157.6,84.7
		c-0.1-1.3-0.4-2.6-0.9-3.7c-0.5-1.1-1.2-2-2-2.8c-0.8-0.8-1.7-1.4-2.8-1.9c-1-0.4-2.2-0.7-3.3-0.7c-1.2,0-2.3,0.2-3.3,0.7
		c-1,0.4-2,1.1-2.8,1.9c-0.8,0.8-1.4,1.8-1.9,2.9c-0.5,1.1-0.8,2.3-0.8,3.6L157.6,84.7L157.6,84.7z"/>
	<path fill="#6D6E71" d="M173.4,76.2c-2.1,0.1-3.8,0.7-5.3,1.8c-1.5,1.1-2.6,2.7-3.2,4.7v14.1h-2.2V74.2h2v5.6
		c0.8-1.6,1.8-2.9,3.1-3.9c1.3-1,2.7-1.6,4.1-1.7c0.3,0,0.6,0,0.8,0c0.2,0,0.4,0,0.6,0L173.4,76.2L173.4,76.2z"/>
</g>
<text transform="matrix(1 0 0 1 30.3337 99.6665)" fill="#6D6E71" font-family="'Raleway-Light'" font-size="44">j</text>
</svg>
