<?xml version="1.0" encoding="utf-8"?>
<!-- Generator: Adobe Illustrator 18.0.0, SVG Export Plug-In . SVG Version: 6.00 Build 0)  -->
<!DOCTYPE svg PUBLIC "-//W3C//DTD SVG 1.1//EN" "http://www.w3.org/Graphics/SVG/1.1/DTD/svg11.dtd">
<svg version="1.1" id="Layer_1" xmlns="http://www.w3.org/2000/svg" xmlns:xlink="http://www.w3.org/1999/xlink" x="0px" y="0px"
	 viewBox="0 0 559 100" enable-background="new 0 0 559 100" xml:space="preserve">
<g>
	<g>
		<path fill="#4D4D4D" d="M82.6,52v7.1h7.3v18.8h5.9v-26L82.6,52z M89.8,21.2v6.6c-2.5-1.9-5.3-3.4-8.5-4.5
			c-3.2-1.1-6.4-1.6-9.9-1.6c-4,0-7.7,0.7-11.1,2.2c-3.4,1.4-6.4,3.3-9,5.8c-2.6,2.5-4.7,5.3-6,8.5c-1.5,3.3-2.2,6.7-2.2,10.4
			c0,3.7,0.8,7.1,2.2,10.4c0.6,1.3,1.3,2.5,2.1,3.7c1,1.5,2.1,2.8,3.3,4.1c0.2,0.2,0.4,0.5,0.7,0.7c0.4,0.4,0.8,0.7,1.2,1.1
			c0,0,0.1,0.1,0.1,0.1c2.3,1.9,4.9,3.4,7.7,4.6c0.5,0.2,1,0.4,1.6,0.6c1.8,0.6,3.8,1.1,5.8,1.4c1.2,0.2,2.5,0.2,3.8,0.2
			c3.4,0,6.7-0.5,9.9-1.6c0.4-0.1,0.8-0.3,1.2-0.5v-7.7c-0.1,0.1-0.3,0.1-0.5,0.3c-1.5,0.8-3.3,1.5-5.1,1.9
			c-1.8,0.4-3.7,0.7-5.6,0.7c-0.4,0-0.9,0-1.3,0c-2.7-0.1-5.1-0.7-7.5-1.6c-0.2-0.1-0.4-0.2-0.6-0.3c-2.4-1-4.5-2.3-6.2-4
			c0,0-0.1-0.1-0.1-0.1c-0.5-0.4-0.9-0.9-1.4-1.4c-1.3-1.5-2.4-3.2-3.3-5c-1.1-2.5-1.6-4.9-1.6-7.7c0-2.6,0.5-5.1,1.6-7.5
			c1.1-2.5,2.6-4.5,4.7-6.3c1.9-1.8,4.2-3.3,7-4.4c2.7-1.1,5.5-1.6,8.8-1.6c1.9,0,3.8,0.1,5.6,0.7c1.8,0.5,3.4,1.1,5.1,1.9
			c1.5,0.8,3,1.8,4.2,2.9c1.2,1.1,2.5,2.3,3.4,3.7h6V21C95.7,21.2,89.8,21.2,89.8,21.2z"/>
	</g>
</g>
<circle fill="none" stroke="#0071BC" stroke-width="3" stroke-miterlimit="10" cx="73" cy="49" r="46.5"/>
<text transform="matrix(1 0 0 1 150 71)"><tspan x="0" y="0" fill="#4D4D4D" font-family="'Raleway-ExtraLight'" font-size="61" letter-spacing="-3">J.GOLLNER</tspan><tspan x="294.9" y="0" fill="#4D4D4D" font-family="'Raleway-ExtraLight'" font-size="61" letter-spacing="-10"> </tspan></text>
</svg>
