<?xml version="1.0" encoding="utf-8"?>
<!-- Generator: Adobe Illustrator 16.0.0, SVG Export Plug-In . SVG Version: 6.00 Build 0)  -->
<!DOCTYPE svg PUBLIC "-//W3C//DTD SVG 1.1//EN" "http://www.w3.org/Graphics/SVG/1.1/DTD/svg11.dtd">
<svg version="1.1" id="Layer_1" xmlns="http://www.w3.org/2000/svg" xmlns:xlink="http://www.w3.org/1999/xlink" x="0px" y="0px"
	 width="40px" height="45px" viewBox="0 0 40 45" enable-background="new 0 0 40 45" xml:space="preserve">
<pattern  y="10" width="50.763" height="47.355" patternUnits="userSpaceOnUse" id="New_Pattern_3" viewBox="0 -47.356 50.763 47.355" overflow="visible">
	<g>
		<polygon fill="none" points="0,-47.356 50.763,-47.356 50.763,0 0,0 		"/>
		
			<image overflow="visible" width="149" height="139" xlink:href="../../greyzz.png"  transform="matrix(0.3407 0 0 0.3407 0 -47.356)">
		</image>
	</g>
</pattern>
<pattern  y="10" width="91" height="91" patternUnits="userSpaceOnUse" id="New_Pattern_4" viewBox="0 -91 91 91" overflow="visible">
	<g>
		<polygon fill="none" points="0,-91 91,-91 91,0 0,0 		"/>
		
			<image overflow="visible" width="200" height="200" xlink:href="../../Design Tools/debut_dark/debut_dark.png"  transform="matrix(0.455 0 0 0.455 0 -91)">
		</image>
	</g>
</pattern>
<polygon fill="url(#New_Pattern_4)" points="40,38 20,45 0,38 0,0 40,0 "/>
<polygon opacity="0.3" fill="url(#New_Pattern_3)" points="40,38 20,45 0,38 0,0 40,0 "/>
<polygon fill="#D1D3D4" enable-background="new    " points="38.064,29.697 36.439,32.954 20.008,38.987 20.002,38.987 3.57,32.954 
	1.945,29.697 20.002,35.881 20.008,35.881 "/>
<polygon fill="#D1D3D4" enable-background="new    " points="38.064,20.132 36.439,23.389 20.008,29.423 20.002,29.423 3.57,23.389 
	1.945,20.132 20.002,26.316 20.008,26.316 "/>
</svg>
