<?xml version="1.0" encoding="utf-8"?>
<!-- Generator: Adobe Illustrator 16.0.0, SVG Export Plug-In . SVG Version: 6.00 Build 0)  -->
<!DOCTYPE svg PUBLIC "-//W3C//DTD SVG 1.1//EN" "http://www.w3.org/Graphics/SVG/1.1/DTD/svg11.dtd">
<svg version="1.1" id="Layer_1" xmlns="http://www.w3.org/2000/svg" xmlns:xlink="http://www.w3.org/1999/xlink" x="0px" y="0px"
	 width="40px" height="45px" viewBox="0 0 40 45" enable-background="new 0 0 40 45" xml:space="preserve">
<polygon points="40,38 20,45 0,38 0,0 40,0 "/>
<path fill="#D1D3D4" d="M20.003,14.795c-5.596,0-10.128,4.532-10.128,10.121c0,5.588,4.532,10.122,10.128,10.122
	c5.589,0,10.121-4.533,10.121-10.122C30.124,19.327,25.593,14.795,20.003,14.795z M27.199,27.186l-0.027,0.074l-7.175,3.514H19.99
	l-7.183-3.514l-0.026-0.08v-1.506l7.209,3.293h0.007l7.203-3.293V27.186z M27.172,21.911l-7.175,3.515H19.99l-7.183-3.515
	l-0.026-0.087v-1.5l7.209,3.287h0.007l7.203-3.287v1.513L27.172,21.911z"/>
</svg>
