<?xml version="1.0" encoding="utf-8"?>
<!-- Generator: Adobe Illustrator 18.0.0, SVG Export Plug-In . SVG Version: 6.00 Build 0)  -->
<!DOCTYPE svg PUBLIC "-//W3C//DTD SVG 1.1//EN" "http://www.w3.org/Graphics/SVG/1.1/DTD/svg11.dtd">
<svg version="1.1" id="Layer_1" xmlns="http://www.w3.org/2000/svg" xmlns:xlink="http://www.w3.org/1999/xlink" x="0px" y="0px"
	 viewBox="0 0 50 50" enable-background="new 0 0 50 50" xml:space="preserve">
<path fill="#4D4D4D" d="M-24.5,42.3c9.8,0,17.7-7.9,17.7-17.7C-6.8,14.9-14.7,7-24.5,7c-9.8,0-17.7,7.9-17.7,17.7
	C-42.1,34.4-34.2,42.3-24.5,42.3L-24.5,42.3z"/>
<path fill="#222222" d="M-25.4,19c0.4,0.6,0.6,1.3,0.6,2.1c0,0.8-0.2,1.5-0.6,2c-0.2,0.3-0.6,0.5-1.1,0.8c0.7,0.3,1.2,0.7,1.6,1.2
	c0.4,0.6,0.5,1.2,0.5,2c0,0.8-0.2,1.6-0.6,2.2c-0.3,0.4-0.6,0.8-1,1.1c-0.4,0.3-1,0.6-1.6,0.7c-0.6,0.1-1.2,0.2-2,0.2h-6.2V17.6h6.7
	C-27.3,17.6-26.1,18.1-25.4,19z M-32.9,20v3h3.4c0.6,0,1.1-0.1,1.5-0.3c0.4-0.2,0.6-0.6,0.6-1.2c0-0.6-0.2-1.1-0.7-1.3
	c-0.4-0.1-1-0.2-1.6-0.2H-32.9z M-32.9,25.3V29h3.4c0.6,0,1.1-0.1,1.4-0.2c0.6-0.3,0.9-0.9,0.9-1.7c0-0.7-0.3-1.2-0.9-1.5
	c-0.3-0.1-0.8-0.2-1.4-0.2H-32.9z M-16,21.4c0.7,0.3,1.3,0.8,1.8,1.5c0.4,0.6,0.7,1.3,0.8,2.1c0.1,0.5,0.1,1.1,0.1,2h-7.4
	c0,1,0.4,1.7,1.1,2.2c0.4,0.3,0.9,0.4,1.5,0.4c0.6,0,1.1-0.2,1.5-0.5c0.2-0.2,0.4-0.4,0.6-0.7h2.7c-0.1,0.6-0.4,1.2-1,1.8
	c-0.9,1-2.2,1.5-3.8,1.5c-1.4,0-2.6-0.4-3.6-1.3c-1-0.8-1.6-2.2-1.6-4.1c0-1.8,0.5-3.1,1.4-4.1c0.9-0.9,2.2-1.4,3.7-1.4
	C-17.5,20.9-16.7,21.1-16,21.4z M-20,23.7c-0.4,0.4-0.6,0.9-0.7,1.6h4.6c0-0.7-0.3-1.2-0.7-1.6c-0.4-0.4-1-0.5-1.6-0.5
	C-19.1,23.1-19.6,23.3-20,23.7z M-15.5,18.2h-5.9v1.7h5.9V18.2z"/>
<path fill="#4D4D4D" d="M24.6,42.2c9.7,0,17.6-7.9,17.6-17.6C42.1,14.9,34.3,7,24.6,7C14.8,7,7,14.9,7,24.6
	C7,34.4,14.8,42.2,24.6,42.2L24.6,42.2z"/>
<path fill="#222222" d="M33.9,20.7c-0.1,1.8-1.4,4.3-3.8,7.5c-2.6,3.3-4.7,5-6.5,5c-1.1,0-2-1-2.8-3c-0.5-1.9-1-3.7-1.5-5.6
	c-0.6-2-1.2-3-1.8-3c-0.1,0-0.6,0.3-1.5,0.9l-0.9-1.1c0.9-0.8,1.8-1.6,2.7-2.4c1.2-1.1,2.2-1.6,2.8-1.7c1.5-0.1,2.4,0.9,2.7,3
	c0.4,2.3,0.6,3.7,0.8,4.3c0.4,1.9,0.9,2.9,1.4,2.9c0.4,0,1-0.6,1.8-1.8c0.8-1.2,1.2-2.2,1.3-2.8c0.1-1.1-0.3-1.6-1.3-1.6
	c-0.4,0-0.9,0.1-1.4,0.3c0.9-3,2.7-4.5,5.3-4.4C33.1,17,34,18.3,33.9,20.7z"/>
</svg>
