<?xml version="1.0" encoding="utf-8"?>
<!-- Generator: Adobe Illustrator 18.0.0, SVG Export Plug-In . SVG Version: 6.00 Build 0)  -->
<!DOCTYPE svg PUBLIC "-//W3C//DTD SVG 1.1//EN" "http://www.w3.org/Graphics/SVG/1.1/DTD/svg11.dtd">
<svg version="1.1" id="Layer_1" xmlns="http://www.w3.org/2000/svg" xmlns:xlink="http://www.w3.org/1999/xlink" x="0px" y="0px"
	 viewBox="0 0 50 50" enable-background="new 0 0 50 50" xml:space="preserve">
<path fill="none" stroke="#0071BC" stroke-miterlimit="10" d="M-24,42.3c9.8,0,17.7-7.9,17.7-17.7C-6.3,14.9-14.3,7-24,7
	c-9.8,0-17.7,7.9-17.7,17.7C-41.7,34.4-33.8,42.3-24,42.3L-24,42.3z"/>
<path fill="#0071BC" d="M-24.9,19c0.4,0.6,0.6,1.3,0.6,2.1c0,0.8-0.2,1.5-0.6,2c-0.2,0.3-0.6,0.5-1.1,0.8c0.7,0.3,1.2,0.7,1.6,1.2
	c0.4,0.6,0.5,1.2,0.5,2c0,0.8-0.2,1.6-0.6,2.2c-0.3,0.4-0.6,0.8-1,1.1c-0.4,0.3-1,0.6-1.6,0.7c-0.6,0.1-1.2,0.2-2,0.2h-6.2V17.6h6.7
	C-26.8,17.6-25.6,18.1-24.9,19z M-32.4,20v3h3.4c0.6,0,1.1-0.1,1.5-0.3c0.4-0.2,0.6-0.6,0.6-1.2c0-0.6-0.2-1.1-0.7-1.3
	c-0.4-0.1-1-0.2-1.6-0.2H-32.4z M-32.4,25.3V29h3.4c0.6,0,1.1-0.1,1.4-0.2c0.6-0.3,0.9-0.9,0.9-1.7c0-0.7-0.3-1.2-0.9-1.5
	c-0.3-0.1-0.8-0.2-1.4-0.2H-32.4z M-15.5,21.4c0.7,0.3,1.3,0.8,1.8,1.5c0.4,0.6,0.7,1.3,0.8,2.1c0.1,0.5,0.1,1.1,0.1,2h-7.4
	c0,1,0.4,1.7,1.1,2.2c0.4,0.3,0.9,0.4,1.5,0.4c0.6,0,1.1-0.2,1.5-0.5c0.2-0.2,0.4-0.4,0.6-0.7h2.7c-0.1,0.6-0.4,1.2-1,1.8
	c-0.9,1-2.2,1.5-3.8,1.5c-1.4,0-2.6-0.4-3.6-1.3c-1-0.8-1.6-2.2-1.6-4.1c0-1.8,0.5-3.1,1.4-4.1c0.9-0.9,2.2-1.4,3.7-1.4
	C-17,20.9-16.2,21.1-15.5,21.4z M-19.5,23.7c-0.4,0.4-0.6,0.9-0.7,1.6h4.6c0-0.7-0.3-1.2-0.7-1.6c-0.4-0.4-1-0.5-1.6-0.5
	C-18.6,23.1-19.1,23.3-19.5,23.7z M-15,18.2h-5.9v1.7h5.9V18.2z"/>
<path fill="none" stroke="#0071BC" stroke-miterlimit="10" d="M25,42.2c9.7,0,17.6-7.9,17.6-17.6C42.6,14.9,34.7,7,25,7
	C15.3,7,7.4,14.9,7.4,24.6C7.4,34.4,15.3,42.2,25,42.2L25,42.2z"/>
<path fill="#0071BC" d="M34.4,20.7c-0.1,1.8-1.4,4.3-3.8,7.5c-2.6,3.3-4.7,5-6.5,5c-1.1,0-2-1-2.8-3c-0.5-1.9-1-3.7-1.5-5.6
	c-0.6-2-1.2-3-1.8-3c-0.1,0-0.6,0.3-1.5,0.9l-0.9-1.1c0.9-0.8,1.8-1.6,2.7-2.4c1.2-1.1,2.2-1.6,2.8-1.7c1.5-0.1,2.4,0.9,2.7,3
	c0.4,2.3,0.6,3.7,0.8,4.3c0.4,1.9,0.9,2.9,1.4,2.9c0.4,0,1-0.6,1.8-1.8c0.8-1.2,1.2-2.2,1.3-2.8c0.1-1.1-0.3-1.6-1.3-1.6
	c-0.4,0-0.9,0.1-1.4,0.3c0.9-3,2.7-4.5,5.3-4.4C33.6,17,34.5,18.3,34.4,20.7z"/>
<path fill="none" stroke="#0071BC" stroke-miterlimit="10" d="M-71.2,42.6c9.7,0,17.6-7.9,17.6-17.6c0-9.7-7.9-17.6-17.6-17.6
	c-9.7,0-17.6,7.9-17.6,17.6C-88.8,34.7-80.9,42.6-71.2,42.6L-71.2,42.6z"/>
<path fill="#0071BC" d="M-76.1,32.3h-3.4v-11h3.4V32.3z M-77.9,20L-77.9,20c-1.3,0-2.1-0.8-2.1-1.9c0-1.1,0.8-1.9,2.1-1.9
	c1.3,0,2,0.8,2.1,1.9C-75.9,19.1-76.7,20-77.9,20z M-62.4,32.3h-3.9v-5.7c0-1.5-0.6-2.5-1.9-2.5c-1,0-1.6,0.7-1.9,1.3
	c-0.1,0.2-0.1,0.6-0.1,0.9v5.9H-74c0,0,0.1-10.1,0-11h3.9v1.7c0.2-0.8,1.5-1.8,3.4-1.8c2.4,0,4.4,1.6,4.4,5V32.3z"/>
</svg>
