<?xml version="1.0" encoding="utf-8"?>
<!-- Generator: Adobe Illustrator 18.0.0, SVG Export Plug-In . SVG Version: 6.00 Build 0)  -->
<!DOCTYPE svg PUBLIC "-//W3C//DTD SVG 1.1//EN" "http://www.w3.org/Graphics/SVG/1.1/DTD/svg11.dtd">
<svg version="1.1" id="Layer_1" xmlns="http://www.w3.org/2000/svg" xmlns:xlink="http://www.w3.org/1999/xlink" x="0px" y="0px"
	 viewBox="0 0 50 50" enable-background="new 0 0 50 50" xml:space="preserve">
<path fill="#4D4D4D" d="M24.6,42.3c9.8,0,17.7-7.9,17.7-17.7C42.3,14.9,34.4,7,24.6,7C14.9,7,7,14.9,7,24.6
	C7,34.4,14.9,42.3,24.6,42.3L24.6,42.3z"/>
<path fill="#222222" d="M23.7,19c0.4,0.6,0.6,1.3,0.6,2.1c0,0.8-0.2,1.5-0.6,2c-0.2,0.3-0.6,0.5-1.1,0.8c0.7,0.3,1.2,0.7,1.6,1.2
	c0.4,0.6,0.5,1.2,0.5,2c0,0.8-0.2,1.6-0.6,2.2c-0.3,0.4-0.6,0.8-1,1.1c-0.4,0.3-1,0.6-1.6,0.7c-0.6,0.1-1.2,0.2-2,0.2h-6.2V17.6h6.7
	C21.8,17.6,23,18.1,23.7,19z M16.2,20v3h3.4c0.6,0,1.1-0.1,1.5-0.3c0.4-0.2,0.6-0.6,0.6-1.2c0-0.6-0.2-1.1-0.7-1.3
	c-0.4-0.1-1-0.2-1.6-0.2H16.2z M16.2,25.3V29h3.4c0.6,0,1.1-0.1,1.4-0.2c0.6-0.3,0.9-0.9,0.9-1.7c0-0.7-0.3-1.2-0.9-1.5
	c-0.3-0.1-0.8-0.2-1.4-0.2H16.2z M33.1,21.4c0.7,0.3,1.3,0.8,1.8,1.5c0.4,0.6,0.7,1.3,0.8,2.1c0.1,0.5,0.1,1.1,0.1,2h-7.4
	c0,1,0.4,1.7,1.1,2.2c0.4,0.3,0.9,0.4,1.5,0.4c0.6,0,1.1-0.2,1.5-0.5c0.2-0.2,0.4-0.4,0.6-0.7h2.7c-0.1,0.6-0.4,1.2-1,1.8
	c-0.9,1-2.2,1.5-3.8,1.5c-1.4,0-2.6-0.4-3.6-1.3c-1-0.8-1.6-2.2-1.6-4.1c0-1.8,0.5-3.1,1.4-4.1c0.9-0.9,2.2-1.4,3.7-1.4
	C31.6,20.9,32.4,21.1,33.1,21.4z M29.1,23.7c-0.4,0.4-0.6,0.9-0.7,1.6H33c0-0.7-0.3-1.2-0.7-1.6c-0.4-0.4-1-0.5-1.6-0.5
	C30,23.1,29.5,23.3,29.1,23.7z M33.6,18.2h-5.9v1.7h5.9V18.2z"/>
<path fill="#4D4D4D" d="M73.7,42.2c9.7,0,17.6-7.9,17.6-17.6C91.2,14.9,83.4,7,73.7,7c-9.7,0-17.6,7.9-17.6,17.6
	C56.1,34.4,63.9,42.2,73.7,42.2L73.7,42.2z"/>
<path fill="#222222" d="M83,20.7c-0.1,1.8-1.4,4.3-3.8,7.5c-2.6,3.3-4.7,5-6.5,5c-1.1,0-2-1-2.8-3c-0.5-1.9-1-3.7-1.5-5.6
	c-0.6-2-1.2-3-1.8-3c-0.1,0-0.6,0.3-1.5,0.9l-0.9-1.1c0.9-0.8,1.8-1.6,2.7-2.4c1.2-1.1,2.2-1.6,2.8-1.7c1.5-0.1,2.4,0.9,2.7,3
	c0.4,2.3,0.6,3.7,0.8,4.3c0.4,1.9,0.9,2.9,1.4,2.9c0.4,0,1-0.6,1.8-1.8c0.8-1.2,1.2-2.2,1.3-2.8c0.1-1.1-0.3-1.6-1.3-1.6
	c-0.4,0-0.9,0.1-1.4,0.3c0.9-3,2.7-4.5,5.3-4.4C82.2,17,83.1,18.3,83,20.7z"/>
</svg>
