<?xml version="1.0" encoding="utf-8"?>
<!-- Generator: Adobe Illustrator 18.0.0, SVG Export Plug-In . SVG Version: 6.00 Build 0)  -->
<!DOCTYPE svg PUBLIC "-//W3C//DTD SVG 1.1//EN" "http://www.w3.org/Graphics/SVG/1.1/DTD/svg11.dtd">
<svg version="1.1" id="Layer_1" xmlns="http://www.w3.org/2000/svg" xmlns:xlink="http://www.w3.org/1999/xlink" x="0px" y="0px"
	 viewBox="0 0 50 50" enable-background="new 0 0 50 50" xml:space="preserve">
<path fill="none" stroke="#0071BC" stroke-miterlimit="10" d="M24.9,42.3c9.8,0,17.7-7.9,17.7-17.7C42.6,14.9,34.7,7,24.9,7
	C15.2,7,7.3,14.9,7.3,24.6C7.3,34.4,15.2,42.3,24.9,42.3L24.9,42.3z"/>
<path fill="#0071BC" d="M24,19c0.4,0.6,0.6,1.3,0.6,2.1c0,0.8-0.2,1.5-0.6,2c-0.2,0.3-0.6,0.5-1.1,0.8c0.7,0.3,1.2,0.7,1.6,1.2
	c0.4,0.6,0.5,1.2,0.5,2c0,0.8-0.2,1.6-0.6,2.2c-0.3,0.4-0.6,0.8-1,1.1c-0.4,0.3-1,0.6-1.6,0.7c-0.6,0.1-1.2,0.2-2,0.2h-6.2V17.6h6.7
	C22.1,17.6,23.3,18.1,24,19z M16.5,20v3h3.4c0.6,0,1.1-0.1,1.5-0.3c0.4-0.2,0.6-0.6,0.6-1.2c0-0.6-0.2-1.1-0.7-1.3
	c-0.4-0.1-1-0.2-1.6-0.2H16.5z M16.5,25.3V29h3.4c0.6,0,1.1-0.1,1.4-0.2c0.6-0.3,0.9-0.9,0.9-1.7c0-0.7-0.3-1.2-0.9-1.5
	c-0.3-0.1-0.8-0.2-1.4-0.2H16.5z M33.4,21.4c0.7,0.3,1.3,0.8,1.8,1.5c0.4,0.6,0.7,1.3,0.8,2.1c0.1,0.5,0.1,1.1,0.1,2h-7.4
	c0,1,0.4,1.7,1.1,2.2c0.4,0.3,0.9,0.4,1.5,0.4c0.6,0,1.1-0.2,1.5-0.5c0.2-0.2,0.4-0.4,0.6-0.7H36c-0.1,0.6-0.4,1.2-1,1.8
	c-0.9,1-2.2,1.5-3.8,1.5c-1.4,0-2.6-0.4-3.6-1.3c-1-0.8-1.6-2.2-1.6-4.1c0-1.8,0.5-3.1,1.4-4.1c0.9-0.9,2.2-1.4,3.7-1.4
	C31.9,20.9,32.7,21.1,33.4,21.4z M29.4,23.7c-0.4,0.4-0.6,0.9-0.7,1.6h4.6c0-0.7-0.3-1.2-0.7-1.6c-0.4-0.4-1-0.5-1.6-0.5
	C30.3,23.1,29.8,23.3,29.4,23.7z M33.9,18.2H28v1.7h5.9V18.2z"/>
<path fill="none" stroke="#0071BC" stroke-miterlimit="10" d="M74,42.2c9.7,0,17.6-7.9,17.6-17.6C91.5,14.9,83.7,7,74,7
	c-9.7,0-17.6,7.9-17.6,17.6C56.4,34.4,64.2,42.2,74,42.2L74,42.2z"/>
<path fill="#0071BC" d="M83.3,20.7c-0.1,1.8-1.4,4.3-3.8,7.5c-2.6,3.3-4.7,5-6.5,5c-1.1,0-2-1-2.8-3c-0.5-1.9-1-3.7-1.5-5.6
	c-0.6-2-1.2-3-1.8-3c-0.1,0-0.6,0.3-1.5,0.9l-0.9-1.1c0.9-0.8,1.8-1.6,2.7-2.4c1.2-1.1,2.2-1.6,2.8-1.7c1.5-0.1,2.4,0.9,2.7,3
	c0.4,2.3,0.6,3.7,0.8,4.3c0.4,1.9,0.9,2.9,1.4,2.9c0.4,0,1-0.6,1.8-1.8c0.8-1.2,1.2-2.2,1.3-2.8c0.1-1.1-0.3-1.6-1.3-1.6
	c-0.4,0-0.9,0.1-1.4,0.3c0.9-3,2.7-4.5,5.3-4.4C82.5,17,83.4,18.3,83.3,20.7z"/>
<path fill="none" stroke="#0071BC" stroke-miterlimit="10" d="M-22.3,42.6c9.7,0,17.6-7.9,17.6-17.6c0-9.7-7.9-17.6-17.6-17.6
	c-9.7,0-17.6,7.9-17.6,17.6C-39.9,34.7-32,42.6-22.3,42.6L-22.3,42.6z"/>
<path fill="#0071BC" d="M-27.2,32.3h-3.4v-11h3.4V32.3z M-29,20L-29,20c-1.3,0-2.1-0.8-2.1-1.9c0-1.1,0.8-1.9,2.1-1.9
	c1.3,0,2,0.8,2.1,1.9C-26.9,19.1-27.7,20-29,20z M-13.5,32.3h-3.9v-5.7c0-1.5-0.6-2.5-1.9-2.5c-1,0-1.6,0.7-1.9,1.3
	c-0.1,0.2-0.1,0.6-0.1,0.9v5.9h-3.9c0,0,0.1-10.1,0-11h3.9v1.7c0.2-0.8,1.5-1.8,3.4-1.8c2.4,0,4.4,1.6,4.4,5V32.3z"/>
</svg>
