<?xml version="1.0" encoding="utf-8"?>
<!-- Generator: Adobe Illustrator 18.0.0, SVG Export Plug-In . SVG Version: 6.00 Build 0)  -->
<!DOCTYPE svg PUBLIC "-//W3C//DTD SVG 1.1//EN" "http://www.w3.org/Graphics/SVG/1.1/DTD/svg11.dtd">
<svg version="1.1" id="Layer_1" xmlns="http://www.w3.org/2000/svg" xmlns:xlink="http://www.w3.org/1999/xlink" x="0px" y="0px"
	 viewBox="0 0 100 100" enable-background="new 0 0 100 100" xml:space="preserve">
<g opacity="0.5">
	<path fill="#B3B3B3" d="M49.5,75.1c-13.4,0-26.8,0-40.2,0c-0.9,0-1.7-0.1-2.5-0.3c-1.3-0.2-2.6-0.6-3.8-1c-0.2-0.1-0.5-0.2-0.8-0.2
		c-0.1,0-0.2-0.1-0.2-0.2c0-0.1,0-0.2,0-0.2c0-0.6,0-1.3,0-1.9c0-0.1,0-0.1,0-0.2c0-0.2,0.1-0.2,0.2-0.2c0.1,0,0.2,0,0.2,0
		c3.7,0,7.4,0,11.1,0c0.4,0,0.4,0,0.4-0.4c0-14.6,0-29.2,0-43.8c0-1,0.4-1.8,1.2-2.4c0.5-0.4,1-0.5,1.6-0.5c0.1,0,0.1,0,0.2,0
		c21.7,0,43.4,0,65.1,0c0.6,0,1.1,0.1,1.5,0.4c0.8,0.5,1.3,1.2,1.4,2.2c0,0.3,0,0.6,0,0.9c0,14.3,0,28.6,0,42.9c0,0.2,0,0.4,0,0.5
		c0,0.2,0,0.2,0.2,0.2c0.1,0,0.2,0,0.2,0c3.7,0,7.4,0,11.1,0c0.4,0,0.5,0.1,0.5,0.5c0,0.6,0,1.2,0,1.8c0,0.1,0,0.1,0,0.2
		c0,0.2-0.1,0.2-0.2,0.2c-0.2,0-0.4,0.1-0.6,0.1c-1.2,0.4-2.5,0.7-3.7,1c-0.6,0.1-1.2,0.2-1.8,0.3c-0.2,0-0.4,0-0.6,0
		c-0.7,0-1.5,0-2.2,0C75.1,75.1,62.3,75.1,49.5,75.1z M49.5,70.9c11.6,0,23.2,0,34.8,0c0.1,0,0.2,0,0.2,0c0.2,0,0.2,0,0.2-0.2
		c0-0.1,0-0.2,0-0.3c0-11.6,0-23.1,0-34.6c0-3.1,0-6.1,0-9.2c0-1-0.5-1.8-1.4-2.3c-0.4-0.2-0.8-0.3-1.2-0.3c-16,0-32.1,0-48.2,0
		c-5.7,0-11.5,0-17.3,0c-1,0-1.7,0.5-2.2,1.3c-0.2,0.4-0.3,0.9-0.3,1.3c0,14.6,0,29.1,0,43.7c0,0.1,0,0.1,0,0.2c0,0,0,0.1,0,0.1
		c0,0.1,0.1,0.2,0.2,0.2c0.1,0,0.2,0,0.3,0C26.3,70.9,37.9,70.9,49.5,70.9z M49.5,73.5c15.6,0,31.2,0,46.8,0c0.1,0,0.2,0,0.3,0
		c0.2,0,0.2,0,0.2-0.2c0-0.1,0-0.3,0-0.4c0-0.5,0-1,0-1.5c0-0.2,0-0.2-0.2-0.2c-0.1,0-0.2,0-0.2,0c-31.2,0-62.4,0-93.6,0
		c-0.1,0-0.2,0-0.2,0c-0.2,0-0.2,0-0.2,0.2c0,0.6,0,1.1,0,1.7c0,0.5-0.1,0.4,0.4,0.4C18.3,73.5,33.9,73.5,49.5,73.5z M3.6,73.8
		c0.1,0,0.2,0.1,0.2,0.1C5,74.2,6,74.4,7.2,74.7c0.8,0.2,1.6,0.2,2.5,0.2c22.1,0,44.2,0,66.3,0c4.7,0,9.4,0,14.1,0
		c0.3,0,0.6,0,0.8-0.1c0.7-0.1,1.4-0.2,2.1-0.4c0.8-0.2,1.5-0.4,2.2-0.6c0.1,0,0.2-0.1,0.2-0.1c0,0,0,0,0-0.1c-0.1,0-0.1,0-0.2,0
		C88.8,73.7,3.8,73.7,3.6,73.8z"/>
	<path fill="#B3B3B3" d="M49.6,26.9c10.8,0,21.7,0,32.5,0c0.4,0,0.4,0,0.4,0.4c0,13.4,0,26.8,0,40.3c0,0.4,0,0.4-0.4,0.4
		c-21.6,0-43.3,0-64.9,0c-0.1,0-0.1,0-0.2,0c-0.2,0-0.2,0-0.2-0.2c0-0.1,0-0.1,0-0.2c0-13.4,0-26.9,0-40.3c0-0.4,0-0.4,0.4-0.4
		C27.9,26.9,38.7,26.9,49.6,26.9z M82.2,27.2c-0.2,0-0.2,0-0.4,0c-21.5,0-43,0-64.5,0c-0.4,0-0.4-0.1-0.4,0.4c0,13.3,0,26.6,0,39.8
		c0,0.4,0,0.4,0.4,0.4c21.5,0,43,0,64.5,0c0.1,0,0.1,0,0.2,0c0.1,0,0.2-0.1,0.2-0.2c0-0.1,0-0.2,0-0.2c0-10.2,0-20.4,0-30.6
		c0-3.1,0-6.2,0-9.3C82.2,27.4,82.2,27.3,82.2,27.2z"/>
</g>
<path fill="none" stroke="#B3B3B3" stroke-miterlimit="10" d="M86.3,29.5"/>
<path fill="none" stroke="#B3B3B3" stroke-miterlimit="10" d="M12.8,29.5"/>
<path fill="none" stroke="#B3B3B3" stroke-miterlimit="10" d="M86.3,58.5"/>
<path fill="none" stroke="#B3B3B3" stroke-miterlimit="10" d="M12.8,58.5"/>
<g>
	<path fill="none" stroke="#535454" stroke-width="2" stroke-miterlimit="10" d="M53,52.2c0-1.9-1.6-3.5-3.4-3.5
		c-1.9,0-3.5,1.5-3.5,3.5c0,1.9,1.5,3.5,3.5,3.5C51.4,55.6,53,54.1,53,52.2z M57.9,52.1c1-1.8,2-3.5,3-5.3c-0.5-0.3-1-0.6-1.5-0.9
		c-1,1.8-2,3.5-3,5.3C56.9,51.6,57.4,51.8,57.9,52.1z M38.1,46.7c1,1.8,2,3.5,3,5.3c0.5-0.3,1-0.6,1.5-0.9c-1-1.8-2-3.5-3-5.3
		C39.1,46.1,38.6,46.4,38.1,46.7z"/>
	<path fill="none" stroke="#535454" stroke-width="2" stroke-miterlimit="10" d="M49.5,36.8c-1.2,0-2.4,0-3.6,0
		c-1.3,0-2.2,1-2.1,2.3c0.1,1.5,0.2,2.9,0.3,4.4c0.1,1.5,1.2,2.5,2.6,2.5c1.7,0,3.4,0,5.1,0c1.4,0,2.6-1.1,2.7-2.5
		c0.1-1.3,0.3-2.5,0.4-3.8c0-0.4,0.1-0.9,0-1.3c-0.2-1-1-1.6-2-1.6C51.9,36.8,50.7,36.8,49.5,36.8z"/>
</g>
<g>
	<path fill="none" stroke="#0071BC" stroke-width="2" stroke-miterlimit="10" d="M36.5,46.4c1.2-0.7,2.3-1.3,3.5-2
		c0.3,0.5,0.6,1,0.8,1.4c0.3-0.2,0.5-0.3,0.8-0.5c-0.2-0.6-0.3-1.2-0.4-1.7c-0.2-1.5-0.6-3-0.5-4.5c0.2-3.3,1.8-5.6,4.8-7
		c1.1-0.5,2.2-0.7,3.4-0.7c1,0,2,0,3,0.2c3.3,0.7,5.8,3.3,6.2,6.6c0.1,0.9,0.1,1.8,0,2.7c-0.2,1-0.3,2-0.5,3
		c-0.1,0.5-0.2,0.9-0.4,1.4c0.3,0.2,0.6,0.4,0.9,0.5c0.3-0.5,0.5-0.9,0.8-1.4c1.2,0.7,2.3,1.3,3.5,2c-1.4,2.4-2.8,4.8-4.2,7.3
		c-1.2-0.7-2.3-1.3-3.5-2c0.3-0.5,0.6-1,0.9-1.6c-0.4-0.2-0.7-0.4-1.1-0.6c-0.3,0.3-0.6,0.5-0.9,0.8c1,2.4-0.1,4.6-1.5,5.6
		c-1.6,1.2-3.8,1.2-5.4,0.1c-1.4-1-2.6-3.2-1.6-5.6c-0.3-0.3-0.6-0.6-1-0.9c-0.3,0.2-0.6,0.3-0.9,0.5c0.3,0.5,0.6,1,0.9,1.6
		c-1.2,0.7-2.3,1.3-3.5,2C39.3,51.2,37.9,48.8,36.5,46.4z"/>
</g>
</svg>
