<?xml version="1.0" encoding="utf-8"?>
<!-- Generator: Adobe Illustrator 18.0.0, SVG Export Plug-In . SVG Version: 6.00 Build 0)  -->
<!DOCTYPE svg PUBLIC "-//W3C//DTD SVG 1.1//EN" "http://www.w3.org/Graphics/SVG/1.1/DTD/svg11.dtd">
<svg version="1.1" id="Layer_1" xmlns="http://www.w3.org/2000/svg" xmlns:xlink="http://www.w3.org/1999/xlink" x="0px" y="0px"
	 viewBox="-0.9 0 1281.8 743.9" enable-background="new -0.9 0 1281.8 743.9" xml:space="preserve">
<g opacity="0.5">
	<path fill="#B3B3B3" d="M645.7,693.7c-171.8,0-343.2,0-515,0c-10.9,0-21.5-1.4-32.5-3.9c-16.6-3.2-32.8-7.1-49-12.3
		c-3.2-1.1-6.3-2.5-9.9-2.1c-1.4,0-2.5-0.7-2.8-2.1c-0.4-1.1-0.4-2.1-0.4-3.2c0-8.1,0-16.6,0-24.7c0-0.7,0-1.8,0.4-2.5
		c0.4-2.1,1.4-2.5,3.2-2.8c1.1,0,2.1,0,3.2,0c47.3,0,94.9,0,142.2,0c5.6,0,4.9,0,4.9-4.9c0-187,0-374.3,0-561.2
		c0-13.1,4.9-23.3,15.2-30.7c6-4.6,13.1-6.3,20.5-6.3c0.7,0,1.4,0,2.1,0c278,0,556.3,0,834.6,0c7.1,0,13.8,1.1,19.8,4.6
		c10.6,6.3,16.9,15.5,18,27.9c0.4,3.9,0.4,7.4,0.4,11.3c0,183.4,0,366.9,0,550.3c0,2.1,0,4.6-0.4,6.7c0,2.1,0.4,2.5,2.5,2.5
		c1.1,0,2.1,0,2.8,0c47.3,0,94.9,0,142.2,0c5.6,0,6.3,1.1,6,6c0,8.1,0,15.5,0,23.6c0,0.7,0,1.4,0,2.1c-0.4,2.1-1.4,3.2-3.2,3.2
		c-2.8,0-5.3,0.7-7.8,1.8c-15.5,5.3-31.7,8.8-48,12.3c-7.4,1.4-15.2,2.8-22.6,3.9c-2.1,0.4-4.6,0.4-7.1,0.4c-9.5,0-19,0-28.6,0
		C973.8,693.7,809.8,693.7,645.7,693.7z M645.4,640c148.9,0,297.4,0,446.6,0c1.1,0,2.1,0,3.2,0c2.5,0,2.8-0.4,2.8-2.8
		c0-1.4,0-2.5,0-3.9c0-148.2,0-296,0-444.1c0-39.2,0-78.3,0-117.5c0-13.1-6.3-22.6-17.6-28.9c-4.9-2.8-10.6-3.9-15.9-3.9
		c-205.7,0-411.7,0-617.3,0c-73.7,0-147.5,0-221.2,0c-12.7,0-22.2,6.3-28.6,17.3c-2.8,5.3-3.9,11.3-3.9,17.3
		c0,186.6,0,373.6,0,560.2c0,0.7,0,1.4,0,2.1c0,0.4,0,0.7,0,1.4c0,1.4,0.7,2.1,2.5,2.1c1.4,0,2.5,0,3.9,0
		C348,640,496.9,640,645.4,640z M645.7,673.2c200,0,400,0,600,0c1.4,0,2.1,0,3.5,0c2.1,0,2.5-0.4,2.5-2.5c0-1.8,0-3.5,0-5.3
		c0-6.3,0-13.1,0-19.4c0-2.8-0.4-2.8-2.8-3.2c-1.1,0-2.1,0-2.8,0c-400,0-800.4,0-1200.4,0c-1.1,0-2.1,0-2.8,0
		c-2.8,0-2.8,0.4-2.8,2.8c0,7.1,0,14.1,0,21.5c0,6.3-1.1,5.6,5.6,5.6C245.7,673.2,445.7,673.2,645.7,673.2z M57.3,677.1
		c1.1,0.4,2.1,0.7,3.2,1.1c13.8,3.9,27.5,7.1,42,9.9c10.6,2.1,20.8,3.2,31.7,3.2c283.3,0,566.5,0,849.8,0c60.3,0,121,0,181.3,0
		c3.5,0,7.1-0.4,10.6-0.7c8.8-1.4,18-2.8,26.8-4.9c9.9-2.1,19-4.6,28.6-7.1c1.1-0.4,2.1-0.7,2.8-1.4c0-0.4,0-0.4-0.4-0.7
		c-1.1,0-1.8-0.4-2.8-0.4C1149.1,675.3,59.8,675.7,57.3,677.1z"/>
	<path fill="#B3B3B3" d="M646.1,76.3c138.6,0,277.6,0,416.3,0c5.3,0,4.6-0.4,4.6,4.9c0,171.8,0,343.9,0,516.1c0,5.3,0.4,4.9-4.9,4.9
		c-277.3,0-554.9,0-832.1,0c-1.1,0-1.8,0-2.8,0c-2.1,0-2.1-0.4-2.1-2.5c0-0.7,0-1.4,0-2.1c0-172.1,0-344.3,0-516.4
		c0-5.3-0.4-4.6,4.6-4.6C368.5,76.3,507.1,76.3,646.1,76.3z M1064.1,79.2c-2.1,0-3.2,0-4.6,0c-275.9,0-551.4,0-827.2,0
		c-4.6,0-4.9-1.1-4.9,4.9c0,170,0,340.4,0,510.4c0,4.9,0,4.9,4.6,4.9c275.5,0,551,0,826.9,0c1.1,0,1.8,0,2.8,0
		c1.4,0,2.1-0.7,2.1-2.1c0-1.1,0-2.1,0-3.2c0-130.5,0-261,0-391.6c0-39.5,0-79.4,0-118.9C1064.1,82.7,1064.1,81.3,1064.1,79.2z"/>
</g>
<path fill="none" stroke="#B3B3B3" stroke-miterlimit="10" d="M1116.5,109.8"/>
<path fill="none" stroke="#B3B3B3" stroke-miterlimit="10" d="M175.2,109.8"/>
<path fill="none" stroke="#B3B3B3" stroke-miterlimit="10" d="M1116.5,481.1"/>
<path fill="none" stroke="#B3B3B3" stroke-miterlimit="10" d="M175.2,481.1"/>
<g>
	<path fill="none" stroke="#535454" stroke-width="2" stroke-miterlimit="10" d="M689.4,399.6c0-24.3-19.9-44.3-44.2-44.4
		c-24.4-0.1-44.5,19.8-44.6,44.3c-0.1,24.4,19.8,44.5,44.3,44.5C669.3,444.1,689.4,424.1,689.4,399.6z M752.5,399.2
		c13-22.5,25.9-44.8,38.8-67.3c-6.5-3.8-12.8-7.4-19.2-11.1c-13,22.5-25.9,44.8-38.8,67.3C739.8,391.9,746.1,395.5,752.5,399.2z
		 M499.4,329.9c13,22.5,25.9,44.8,38.9,67.3c6.5-3.8,12.8-7.4,19.2-11.1c-13-22.5-25.9-44.8-38.8-67.3
		C512.1,322.6,505.8,326.2,499.4,329.9z"/>
	<path fill="none" stroke="#535454" stroke-width="2" stroke-miterlimit="10" d="M645,203.3c-15.2,0-30.4-0.1-45.7,0
		c-17.1,0.1-28.4,12.6-27.1,29.6c1.4,18.8,2.9,37.6,4.4,56.3c1.5,18.9,15.2,32.3,33.8,32.4c21.9,0.1,43.8,0.1,65.7,0
		c18.5-0.1,33.1-13.9,34.8-32.1c1.5-16.3,3.5-32.6,5.1-48.9c0.5-5.6,1.3-11.5,0.4-17c-2.1-12.6-12.4-20.4-26-20.4
		C675.3,203.3,660.1,203.3,645,203.3z"/>
</g>
<g>
	<path fill="none" stroke="#0071BC" stroke-width="2" stroke-miterlimit="10" d="M478.3,325.5c15-8.6,29.7-17.2,44.9-25.9
		c3.5,6.1,7.1,12.2,10.7,18.4c3.6-2,6.9-4,10.1-5.8c-2-7.6-4.4-14.8-5.6-22.2c-3.1-19-7.4-37.9-6.2-57.3c2.5-42.1,23-72.3,61.5-89.8
		c13.6-6.2,28.1-8.5,43-8.5c12.9,0,25.7-0.2,38.4,2.3c41.9,8.4,74.1,42.5,79.9,84.8c1.6,11.6,1.3,23.1-0.5,34.6
		c-2,13-3.9,26-6.2,38.9c-1.1,5.9-3.2,11.7-5,17.7c3.9,2.3,7.9,4.6,12,6.9c3.5-6.1,7-12,10.5-18.1c15,8.6,29.8,17.2,44.9,25.9
		c-17.9,31-35.7,61.9-53.7,93c-15-8.7-29.8-17.2-44.9-25.9c3.9-6.8,7.7-13.4,11.7-20.3c-4.7-2.7-9.4-5.4-13.9-8.1
		c-3.9,3.5-7.7,6.9-11.5,10.3c12.8,30.8-0.8,58.5-19.2,71.9c-20.6,15-48.3,15.2-69,0.8c-18.5-12.9-33.2-40.6-20.6-72.3
		c-4.2-3.7-8.3-7.4-12.5-11.2c-3.8,2.2-7.6,4.4-11.7,6.8c3.8,6.7,7.6,13.2,11.5,20c-14.9,8.6-29.7,17.2-44.9,25.9
		C514.1,387.5,496.3,356.7,478.3,325.5z"/>
</g>
<g>
	<path fill="none" stroke="#0071BC" stroke-miterlimit="10" d="M1690,360.1c-3.7,3.1-6.9,5.7-9.9,8.5c-0.6,0.6-0.9,1.9-1,2.9
		c-1.2,23.5-10.6,42.1-28.3,55.6c-1.5,1.2-2,2.3-2,4.3c0.1,34.5,0,69,0,103.5c0,2-0.1,4.2-0.6,6.1c-1.4,5.3-6,8.4-11.2,7.8
		c-4.9-0.5-8.8-4.8-9.2-10.1c-0.1-1.4-0.1-2.9-0.1-4.3c0-30.9,0-61.8,0-92.7c0-1.1,0-2.2,0-3c-7.8,0-15.3,0-23.3,0c0,0.9,0,2,0,3.1
		c0,18.4,0,36.8,0,55.2c0,5.3-2.8,9.5-7.2,11.1c-4.2,1.5-9,0.3-11.5-3.7c-1.4-2.2-2.3-5.3-2.4-8c-0.2-21-0.1-42-0.1-62.9
		c0-2.2-0.6-3.4-2.4-4.6c-13.6-9.2-22.9-22.1-27.8-38.7c-0.6-2-1.3-3-3.3-3.5c-32.7-8.4-56.9-37.7-61.1-73.7
		c-5.2-44.4,21.8-85.8,62.2-95.7c1.7-0.4,3.5-1.7,4.7-3c18.2-20.6,40.3-31.8,66.7-32.9c46.7-1.9,89.1,34.8,96.6,87.2
		c2.8,19.5,0.5,38.5-6.6,56.7c-0.6,1.6-1,3.6-1,5.3c-0.1,22.5,0,45.1-0.1,67.6c0,6.3-4.2,11.1-9.8,11.5c-5.4,0.4-10.2-3.8-11.1-9.8
		c-0.2-1.3-0.2-2.7-0.2-4c0-10.7,0-21.5,0-32.2C1690,362.7,1690,361.6,1690,360.1z"/>
	<path fill="none" stroke="#0071BC" stroke-miterlimit="10" d="M1766,376.1c-0.1,9.1-4.3,13.5-12.8,13.5
		c-8.2-0.1-12.4-4.7-12.4-13.6c0-8.9,4.5-13.7,12.7-13.7C1761.8,362.3,1766.1,367.1,1766,376.1z"/>
	<path fill="none" stroke="#0071BC" stroke-miterlimit="10" d="M1739.1,326.6c0,4.2-1.9,6.4-5.7,6.4c-3.8,0-5.8-2.1-5.8-6.3
		c0-4.3,1.8-6.3,5.7-6.3C1737.2,320.4,1739,322.4,1739.1,326.6z"/>
</g>
</svg>
